<?xml version="1.0" encoding="utf-8"?>
<!-- Generator: Adobe Illustrator 24.0.0, SVG Export Plug-In . SVG Version: 6.00 Build 0)  -->
<svg version="1.1" id="Layer_1" xmlns="http://www.w3.org/2000/svg" xmlns:xlink="http://www.w3.org/1999/xlink" x="0px" y="0px"
	 viewBox="0 0 1728 1296" style="enable-background:new 0 0 1728 1296;" xml:space="preserve">
<style type="text/css">
	.st0{fill:#F5F5F5;}
	.st1{fill:#E1E1E1;}
	.st2{fill:#FFFFFF;}
	.st3{fill:#ECECEC;}
	.st4{fill:#FAFAFA;}
	.st5{fill:#1A2E35;}
	.st6{fill:#375A64;}
	.st7{fill:#FF4F5B;}
	.st8{fill:#007CFF;}
	.st9{opacity:0.4;}
	.st10{opacity:0.3;}
	.st11{fill:#FFBF9D;}
	.st12{fill:#FF9A6C;}
	.st13{opacity:0.2;}
</style>
<g>
	<g>
		<g>
			<polygon class="st0" points="591.83,594.52 212.84,594.52 240.85,324.55 623.05,324.55 			"/>
		</g>
	</g>
	<g>
		<g>
			<g>
				<path class="st1" d="M254.5,549.21c-0.33-0.03,3.58-40.63,8.75-90.67c5.17-50.05,9.62-90.59,9.95-90.55
					c0.33,0.03-3.58,40.62-8.75,90.68C259.29,508.7,254.83,549.24,254.5,549.21z"/>
			</g>
		</g>
		<g>
			<g>
				<path class="st1" d="M323.5,377.02c0,0.33-8.52,0.61-19.02,0.61c-10.51,0-19.03-0.27-19.03-0.61c0-0.33,8.52-0.61,19.03-0.61
					C314.99,376.41,323.5,376.68,323.5,377.02z"/>
			</g>
		</g>
		<g>
			<g>
				<path class="st1" d="M485.38,377.02c0,0.33-33.93,0.61-75.77,0.61c-41.86,0-75.78-0.27-75.78-0.61c0-0.33,33.92-0.61,75.78-0.61
					C451.45,376.41,485.38,376.68,485.38,377.02z"/>
			</g>
		</g>
		<g>
			<g>
				<path class="st1" d="M319.02,472.96c0,0.33-8.52,0.61-19.02,0.61c-10.51,0-19.03-0.27-19.03-0.61c0-0.33,8.52-0.61,19.03-0.61
					C310.5,472.35,319.02,472.62,319.02,472.96z"/>
			</g>
		</g>
		<g>
			<g>
				<path class="st1" d="M480.89,472.96c0,0.33-33.93,0.61-75.77,0.61c-41.86,0-75.78-0.27-75.78-0.61c0-0.33,33.92-0.61,75.78-0.61
					C446.96,472.35,480.89,472.62,480.89,472.96z"/>
			</g>
		</g>
		<g>
			<g>
				<path class="st1" d="M429.27,517.18c0,0.33-33.93,0.61-75.77,0.61c-41.86,0-75.78-0.27-75.78-0.61c0-0.33,33.92-0.61,75.78-0.61
					C395.34,516.58,429.27,516.85,429.27,517.18z"/>
			</g>
		</g>
		<g>
			<g>
				<path class="st1" d="M340.27,404.1c0,0.33-11.98,0.61-26.76,0.61c-14.78,0-26.77-0.27-26.77-0.61c0-0.33,11.98-0.61,26.77-0.61
					C328.29,403.5,340.27,403.77,340.27,404.1z"/>
			</g>
		</g>
		<g>
			<g>
				<path class="st1" d="M338.91,443.81c0,0.33-11.98,0.61-26.76,0.61c-14.78,0-26.77-0.27-26.77-0.61c0-0.33,11.98-0.61,26.77-0.61
					C326.93,443.21,338.91,443.48,338.91,443.81z"/>
			</g>
		</g>
		<g>
			<g>
				<path class="st1" d="M384.16,500.57c0,0.33-11.98,0.61-26.76,0.61c-14.78,0-26.77-0.27-26.77-0.61c0-0.33,11.98-0.61,26.77-0.61
					C372.18,499.96,384.16,500.23,384.16,500.57z"/>
			</g>
		</g>
		<g>
			<g>
				<path class="st1" d="M535,404.1c0,0.33-30.62,0.61-68.37,0.61c-37.77,0-68.38-0.27-68.38-0.61c0-0.33,30.61-0.61,68.38-0.61
					C504.39,403.5,535,403.77,535,404.1z"/>
			</g>
		</g>
		<g>
			<g>
				<path class="st1" d="M492.8,446.11c0,0.33-30.62,0.61-68.37,0.61c-37.77,0-68.38-0.27-68.38-0.61c0-0.33,30.61-0.61,68.38-0.61
					C462.18,445.51,492.8,445.78,492.8,446.11z"/>
			</g>
		</g>
		<g>
			<g>
				<path class="st1" d="M539.86,500.57c0,0.33-30.62,0.61-68.37,0.61c-37.77,0-68.38-0.27-68.38-0.61c0-0.33,30.61-0.61,68.38-0.61
					C509.24,499.96,539.86,500.23,539.86,500.57z"/>
			</g>
		</g>
		<g>
			<g>
				<path class="st1" d="M415,549.21c0,0.33-30.61,0.61-68.37,0.61c-37.77,0-68.38-0.27-68.38-0.61c0-0.33,30.61-0.61,68.38-0.61
					C384.38,548.6,415,548.87,415,549.21z"/>
			</g>
		</g>
		<g>
			<g>
				<path class="st1" d="M566.22,549.21c0,0.33-30.62,0.61-68.37,0.61c-37.77,0-68.38-0.27-68.38-0.61c0-0.33,30.61-0.61,68.38-0.61
					C535.61,548.6,566.22,548.87,566.22,549.21z"/>
			</g>
		</g>
		<g>
			<g>
				<path class="st1" d="M414.99,565.04c0,0.33-30.62,0.61-68.37,0.61c-37.77,0-68.38-0.27-68.38-0.61c0-0.33,30.61-0.61,68.38-0.61
					C384.37,564.43,414.99,564.7,414.99,565.04z"/>
			</g>
		</g>
		<g>
			<g>
				<path class="st1" d="M421.64,415.5c0,0.33-30.62,0.61-68.37,0.61c-37.77,0-68.38-0.27-68.38-0.61c0-0.33,30.61-0.61,68.38-0.61
					C391.02,414.9,421.64,415.17,421.64,415.5z"/>
			</g>
		</g>
		<g>
			<g>
				<path class="st1" d="M385.17,404.25c0,0.33-7.89,0.61-17.61,0.61c-9.73,0-17.61-0.27-17.61-0.61s7.88-0.61,17.61-0.61
					C377.28,403.65,385.17,403.92,385.17,404.25z"/>
			</g>
		</g>
		<g>
			<g>
				<path class="st1" d="M314.54,485.99c0,0.33-7.89,0.61-17.61,0.61c-9.73,0-17.61-0.27-17.61-0.61c0-0.33,7.88-0.61,17.61-0.61
					C306.66,485.39,314.54,485.66,314.54,485.99z"/>
			</g>
		</g>
		<g>
			<g>
				<path class="st1" d="M313.71,500.57c0,0.33-7.89,0.61-17.61,0.61c-9.73,0-17.61-0.27-17.61-0.61c0-0.33,7.88-0.61,17.61-0.61
					C305.82,499.96,313.71,500.23,313.71,500.57z"/>
			</g>
		</g>
		<g>
			<g>
				<path class="st1" d="M618.88,353.1c0,0.33-85.23,0.61-190.35,0.61c-105.15,0-190.36-0.27-190.36-0.61s85.21-0.61,190.36-0.61
					C533.65,352.49,618.88,352.76,618.88,353.1z"/>
			</g>
		</g>
		<g>
			<circle class="st2" cx="263.85" cy="340.22" r="4.51"/>
		</g>
		<g>
			<circle class="st2" cx="283.22" cy="340.22" r="4.51"/>
		</g>
		<g>
			<circle class="st2" cx="302.6" cy="340.22" r="4.51"/>
		</g>
	</g>
</g>
<g>
	<g>
		<g>
			<polygon class="st0" points="1575.92,459.53 1196.93,459.53 1224.94,189.57 1607.15,189.57 			"/>
		</g>
	</g>
	<g>
		<g>
			<g>
				<path class="st1" d="M1238.59,414.23c-0.33-0.03,3.58-40.63,8.75-90.67c5.17-50.05,9.62-90.59,9.95-90.55
					c0.33,0.03-3.58,40.62-8.75,90.68C1243.38,373.72,1238.92,414.26,1238.59,414.23z"/>
			</g>
		</g>
		<g>
			<g>
				<path class="st1" d="M1307.6,242.03c0,0.33-8.52,0.61-19.02,0.61c-10.51,0-19.03-0.27-19.03-0.61c0-0.33,8.52-0.61,19.03-0.61
					C1299.08,241.43,1307.6,241.7,1307.6,242.03z"/>
			</g>
		</g>
		<g>
			<g>
				<path class="st1" d="M1469.47,242.03c0,0.33-33.93,0.61-75.77,0.61c-41.86,0-75.78-0.27-75.78-0.61
					c0-0.33,33.92-0.61,75.78-0.61C1435.54,241.43,1469.47,241.7,1469.47,242.03z"/>
			</g>
		</g>
		<g>
			<g>
				<path class="st1" d="M1303.11,337.97c0,0.33-8.52,0.61-19.02,0.61c-10.51,0-19.03-0.27-19.03-0.61c0-0.33,8.52-0.61,19.03-0.61
					C1294.59,337.37,1303.11,337.64,1303.11,337.97z"/>
			</g>
		</g>
		<g>
			<g>
				<path class="st1" d="M1464.99,337.97c0,0.33-33.93,0.61-75.77,0.61c-41.86,0-75.78-0.27-75.78-0.61
					c0-0.33,33.92-0.61,75.78-0.61C1431.06,337.37,1464.99,337.64,1464.99,337.97z"/>
			</g>
		</g>
		<g>
			<g>
				<path class="st1" d="M1413.36,382.2c0,0.33-33.93,0.61-75.77,0.61c-41.86,0-75.78-0.27-75.78-0.61c0-0.33,33.92-0.61,75.78-0.61
					C1379.43,381.59,1413.36,381.86,1413.36,382.2z"/>
			</g>
		</g>
		<g>
			<g>
				<path class="st1" d="M1324.37,269.12c0,0.33-11.98,0.61-26.76,0.61c-14.78,0-26.77-0.27-26.77-0.61
					c0-0.33,11.98-0.61,26.77-0.61C1312.38,268.51,1324.37,268.78,1324.37,269.12z"/>
			</g>
		</g>
		<g>
			<g>
				<path class="st1" d="M1323,308.83c0,0.33-11.98,0.61-26.76,0.61c-14.78,0-26.77-0.27-26.77-0.61c0-0.33,11.98-0.61,26.77-0.61
					C1311.02,308.22,1323,308.5,1323,308.83z"/>
			</g>
		</g>
		<g>
			<g>
				<path class="st1" d="M1368.25,365.58c0,0.33-11.98,0.61-26.76,0.61c-14.78,0-26.77-0.27-26.77-0.61
					c0-0.33,11.98-0.61,26.77-0.61C1356.27,364.98,1368.25,365.25,1368.25,365.58z"/>
			</g>
		</g>
		<g>
			<g>
				<path class="st1" d="M1519.09,269.12c0,0.33-30.62,0.61-68.37,0.61c-37.77,0-68.38-0.27-68.38-0.61
					c0-0.33,30.61-0.61,68.38-0.61C1488.48,268.51,1519.09,268.78,1519.09,269.12z"/>
			</g>
		</g>
		<g>
			<g>
				<path class="st1" d="M1476.89,311.13c0,0.33-30.61,0.61-68.37,0.61c-37.77,0-68.38-0.27-68.38-0.61
					c0-0.33,30.61-0.61,68.38-0.61C1446.28,310.52,1476.89,310.8,1476.89,311.13z"/>
			</g>
		</g>
		<g>
			<g>
				<path class="st1" d="M1523.95,365.58c0,0.33-30.61,0.61-68.37,0.61c-37.77,0-68.38-0.27-68.38-0.61
					c0-0.33,30.61-0.61,68.38-0.61C1493.33,364.98,1523.95,365.25,1523.95,365.58z"/>
			</g>
		</g>
		<g>
			<g>
				<path class="st1" d="M1399.09,414.23c0,0.33-30.62,0.61-68.37,0.61c-37.77,0-68.38-0.27-68.38-0.61
					c0-0.33,30.61-0.61,68.38-0.61C1368.47,413.62,1399.09,413.89,1399.09,414.23z"/>
			</g>
		</g>
		<g>
			<g>
				<path class="st1" d="M1550.32,414.23c0,0.33-30.61,0.61-68.37,0.61c-37.77,0-68.38-0.27-68.38-0.61
					c0-0.33,30.61-0.61,68.38-0.61C1519.7,413.62,1550.32,413.89,1550.32,414.23z"/>
			</g>
		</g>
		<g>
			<g>
				<path class="st1" d="M1399.08,430.05c0,0.33-30.61,0.61-68.37,0.61c-37.77,0-68.38-0.27-68.38-0.61
					c0-0.33,30.61-0.61,68.38-0.61C1368.46,429.45,1399.08,429.72,1399.08,430.05z"/>
			</g>
		</g>
		<g>
			<g>
				<path class="st1" d="M1405.73,280.52c0,0.33-30.62,0.61-68.37,0.61c-37.77,0-68.38-0.27-68.38-0.61s30.61-0.61,68.38-0.61
					C1375.12,279.92,1405.73,280.19,1405.73,280.52z"/>
			</g>
		</g>
		<g>
			<g>
				<path class="st1" d="M1369.26,269.27c0,0.33-7.89,0.61-17.61,0.61c-9.73,0-17.61-0.27-17.61-0.61c0-0.33,7.88-0.61,17.61-0.61
					C1361.38,268.66,1369.26,268.93,1369.26,269.27z"/>
			</g>
		</g>
		<g>
			<g>
				<path class="st1" d="M1298.64,351.01c0,0.33-7.89,0.61-17.61,0.61c-9.73,0-17.61-0.27-17.61-0.61c0-0.33,7.88-0.61,17.61-0.61
					C1290.75,350.4,1298.64,350.68,1298.64,351.01z"/>
			</g>
		</g>
		<g>
			<g>
				<path class="st1" d="M1297.8,365.58c0,0.33-7.89,0.61-17.61,0.61c-9.73,0-17.61-0.27-17.61-0.61c0-0.33,7.88-0.61,17.61-0.61
					C1289.92,364.98,1297.8,365.25,1297.8,365.58z"/>
			</g>
		</g>
		<g>
			<g>
				<path class="st1" d="M1602.97,218.11c0,0.33-85.23,0.61-190.35,0.61c-105.15,0-190.36-0.27-190.36-0.61
					c0-0.33,85.21-0.61,190.36-0.61C1517.74,217.51,1602.97,217.78,1602.97,218.11z"/>
			</g>
		</g>
		<g>
			<circle class="st2" cx="1247.94" cy="205.24" r="4.51"/>
		</g>
		<g>
			<circle class="st2" cx="1267.32" cy="205.24" r="4.51"/>
		</g>
		<g>
			<circle class="st2" cx="1286.69" cy="205.24" r="4.51"/>
		</g>
	</g>
</g>
<g>
	<g>
		<g>
			<polygon class="st3" points="781.02,283.26 544.97,283.26 562.42,115.11 800.47,115.11 			"/>
		</g>
	</g>
	<g>
		<g>
			<g>
				<path class="st1" d="M570.92,255.04c-0.33-0.03,2.01-25.33,5.22-56.49c3.22-31.17,6.09-56.41,6.43-56.38
					c0.33,0.03-2.01,25.33-5.22,56.5C574.13,229.83,571.25,255.07,570.92,255.04z"/>
			</g>
		</g>
		<g>
			<g>
				<path class="st1" d="M613.9,147.79c0,0.33-5.31,0.61-11.85,0.61c-6.55,0-11.85-0.27-11.85-0.61s5.3-0.61,11.85-0.61
					C608.59,147.19,613.9,147.46,613.9,147.79z"/>
			</g>
		</g>
		<g>
			<g>
				<path class="st1" d="M714.72,147.79c0,0.33-21.13,0.61-47.19,0.61c-26.07,0-47.2-0.27-47.2-0.61s21.13-0.61,47.2-0.61
					C693.59,147.19,714.72,147.46,714.72,147.79z"/>
			</g>
		</g>
		<g>
			<g>
				<path class="st1" d="M611.11,207.55c0,0.33-5.31,0.61-11.85,0.61c-6.55,0-11.85-0.27-11.85-0.61c0-0.33,5.3-0.61,11.85-0.61
					C605.8,206.94,611.11,207.21,611.11,207.55z"/>
			</g>
		</g>
		<g>
			<g>
				<path class="st1" d="M711.93,207.55c0,0.33-21.13,0.61-47.19,0.61c-26.07,0-47.2-0.27-47.2-0.61c0-0.33,21.13-0.61,47.2-0.61
					C690.79,206.94,711.93,207.21,711.93,207.55z"/>
			</g>
		</g>
		<g>
			<g>
				<path class="st1" d="M679.77,235.09c0,0.33-21.13,0.61-47.19,0.61c-26.07,0-47.2-0.27-47.2-0.61c0-0.33,21.13-0.61,47.2-0.61
					C658.64,234.49,679.77,234.76,679.77,235.09z"/>
			</g>
		</g>
		<g>
			<g>
				<path class="st1" d="M624.34,164.66c0,0.33-7.46,0.61-16.67,0.61c-9.21,0-16.67-0.27-16.67-0.61c0-0.33,7.46-0.61,16.67-0.61
					C616.88,164.06,624.34,164.33,624.34,164.66z"/>
			</g>
		</g>
		<g>
			<g>
				<path class="st1" d="M623.49,189.39c0,0.33-7.46,0.61-16.67,0.61c-9.21,0-16.67-0.27-16.67-0.61c0-0.33,7.46-0.61,16.67-0.61
					C616.03,188.79,623.49,189.06,623.49,189.39z"/>
			</g>
		</g>
		<g>
			<g>
				<path class="st1" d="M651.68,224.74c0,0.33-7.46,0.61-16.67,0.61c-9.21,0-16.67-0.27-16.67-0.61c0-0.33,7.46-0.61,16.67-0.61
					C644.21,224.14,651.68,224.41,651.68,224.74z"/>
			</g>
		</g>
		<g>
			<g>
				<path class="st1" d="M745.63,164.66c0,0.33-19.07,0.61-42.58,0.61c-23.52,0-42.59-0.27-42.59-0.61c0-0.33,19.06-0.61,42.59-0.61
					C726.56,164.06,745.63,164.33,745.63,164.66z"/>
			</g>
		</g>
		<g>
			<g>
				<path class="st1" d="M719.34,190.83c0,0.33-19.07,0.61-42.58,0.61c-23.52,0-42.59-0.27-42.59-0.61s19.06-0.61,42.59-0.61
					C700.27,190.22,719.34,190.49,719.34,190.83z"/>
			</g>
		</g>
		<g>
			<g>
				<path class="st1" d="M748.65,224.74c0,0.33-19.07,0.61-42.58,0.61c-23.52,0-42.59-0.27-42.59-0.61c0-0.33,19.06-0.61,42.59-0.61
					C729.58,224.14,748.65,224.41,748.65,224.74z"/>
			</g>
		</g>
		<g>
			<g>
				<path class="st1" d="M670.88,255.04c0,0.33-19.07,0.61-42.58,0.61c-23.52,0-42.59-0.27-42.59-0.61s19.06-0.61,42.59-0.61
					C651.81,254.43,670.88,254.7,670.88,255.04z"/>
			</g>
		</g>
		<g>
			<g>
				<path class="st1" d="M765.07,255.04c0,0.33-19.07,0.61-42.58,0.61c-23.52,0-42.59-0.27-42.59-0.61s19.06-0.61,42.59-0.61
					C746,254.43,765.07,254.7,765.07,255.04z"/>
			</g>
		</g>
		<g>
			<g>
				<path class="st1" d="M670.88,264.9c0,0.33-19.07,0.61-42.58,0.61c-23.52,0-42.59-0.27-42.59-0.61c0-0.33,19.06-0.61,42.59-0.61
					C651.81,264.29,670.88,264.56,670.88,264.9z"/>
			</g>
		</g>
		<g>
			<g>
				<path class="st1" d="M675.02,171.76c0,0.33-19.07,0.61-42.58,0.61c-23.52,0-42.59-0.27-42.59-0.61s19.06-0.61,42.59-0.61
					C655.95,171.16,675.02,171.43,675.02,171.76z"/>
			</g>
		</g>
		<g>
			<g>
				<path class="st1" d="M652.31,164.75c0,0.33-4.91,0.61-10.97,0.61c-6.06,0-10.97-0.27-10.97-0.61c0-0.33,4.91-0.61,10.97-0.61
					C647.4,164.15,652.31,164.42,652.31,164.75z"/>
			</g>
		</g>
		<g>
			<g>
				<path class="st1" d="M608.32,215.67c0,0.33-4.91,0.61-10.97,0.61c-6.06,0-10.97-0.27-10.97-0.61c0-0.33,4.91-0.61,10.97-0.61
					C603.41,215.06,608.32,215.33,608.32,215.67z"/>
			</g>
		</g>
		<g>
			<g>
				<path class="st1" d="M607.8,224.74c0,0.33-4.91,0.61-10.97,0.61c-6.06,0-10.97-0.27-10.97-0.61c0-0.33,4.91-0.61,10.97-0.61
					C602.89,224.14,607.8,224.41,607.8,224.74z"/>
			</g>
		</g>
		<g>
			<g>
				<path class="st1" d="M797.87,132.89c0,0.33-53.08,0.61-118.55,0.61c-65.49,0-118.56-0.27-118.56-0.61
					c0-0.33,53.07-0.61,118.56-0.61C744.78,132.29,797.87,132.56,797.87,132.89z"/>
			</g>
		</g>
		<g>
			<path class="st2" d="M579.55,124.88c0,1.55-1.26,2.81-2.81,2.81c-1.55,0-2.81-1.26-2.81-2.81c0-1.55,1.26-2.81,2.81-2.81
				C578.3,122.07,579.55,123.33,579.55,124.88z"/>
		</g>
		<g>
			<path class="st2" d="M591.62,124.88c0,1.55-1.26,2.81-2.81,2.81c-1.55,0-2.81-1.26-2.81-2.81c0-1.55,1.26-2.81,2.81-2.81
				C590.36,122.07,591.62,123.33,591.62,124.88z"/>
		</g>
		<g>
			<path class="st2" d="M603.69,124.88c0,1.55-1.26,2.81-2.81,2.81c-1.55,0-2.81-1.26-2.81-2.81c0-1.55,1.26-2.81,2.81-2.81
				C602.43,122.07,603.69,123.33,603.69,124.88z"/>
		</g>
	</g>
</g>
<g>
	<g>
		<g>
			<g>
				<g>
					<rect x="1303.67" y="576.7" class="st3" width="118.87" height="384.75"/>
				</g>
			</g>
		</g>
		<g>
			<g>
				<g>
					<rect x="1422.54" y="576.77" class="st1" width="100.92" height="384.62"/>
				</g>
			</g>
		</g>
		<g>
			<g>
				<g>
					<rect x="1312.96" y="592.28" class="st1" width="95.37" height="82.89"/>
				</g>
			</g>
		</g>
		<g>
			<g>
				<g>
					<rect x="1312.96" y="684.56" class="st1" width="95.37" height="82.89"/>
				</g>
			</g>
		</g>
		<g>
			<g>
				<g>
					<rect x="1312.96" y="776.84" class="st1" width="95.37" height="82.89"/>
				</g>
			</g>
		</g>
		<g>
			<g>
				<g>
					<rect x="1312.96" y="869.11" class="st1" width="95.37" height="82.89"/>
				</g>
			</g>
		</g>
		<g>
			<g>
				<g>
					<path class="st4" d="M1360.64,607.59c0,1.83-1.48,3.31-3.31,3.31c-1.83,0-3.31-1.48-3.31-3.31c0-1.83,1.48-3.31,3.31-3.31
						C1359.16,604.28,1360.64,605.76,1360.64,607.59z"/>
				</g>
			</g>
		</g>
		<g>
			<g>
				<g>
					<path class="st4" d="M1360.64,700.94c0,1.83-1.48,3.31-3.31,3.31c-1.83,0-3.31-1.48-3.31-3.31c0-1.83,1.48-3.31,3.31-3.31
						C1359.16,697.63,1360.64,699.11,1360.64,700.94z"/>
				</g>
			</g>
		</g>
		<g>
			<g>
				<g>
					<path class="st4" d="M1360.64,794.29c0,1.83-1.48,3.31-3.31,3.31c-1.83,0-3.31-1.48-3.31-3.31c0-1.83,1.48-3.31,3.31-3.31
						C1359.16,790.98,1360.64,792.46,1360.64,794.29z"/>
				</g>
			</g>
		</g>
		<g>
			<g>
				<g>
					<path class="st4" d="M1360.64,887.64c0,1.83-1.48,3.31-3.31,3.31c-1.83,0-3.31-1.48-3.31-3.31c0-1.83,1.48-3.31,3.31-3.31
						C1359.16,884.33,1360.64,885.81,1360.64,887.64z"/>
				</g>
			</g>
		</g>
	</g>
	<g>
		<g>
			<rect x="1303.67" y="961.46" class="st1" width="13.74" height="77.17"/>
		</g>
	</g>
	<g>
		<g>
			<rect x="1408.33" y="961.46" class="st1" width="13.74" height="77.17"/>
		</g>
	</g>
	<g>
		<g>
			<rect x="1508.25" y="961.46" class="st1" width="13.74" height="77.17"/>
		</g>
	</g>
</g>
<g>
	<g>
		<path class="st0" d="M305.06,1016.86c-3.52-3.01-11.38-12.54-5.32-23.62c2.22-4.06,6.94-6.07,11.21-7.87
			c4.27-1.79,8.76-3.35,12.3-6.34c6.67-5.65,8.51-15.03,12.93-22.56c5.08-8.65,14.56-15.12,24.58-14.67
			c11.47,0.52,21.04,9.85,25.38,20.48c4.34,10.64,4.49,22.44,4.58,33.93c0.05,6.35-0.23,13.51-4.92,17.8
			c-4.32,3.95-10.82,4-16.67,3.82c-20.9-0.64-41.8-1.28-62.7-1.92"/>
	</g>
	<g>
		<g>
			<path class="st1" d="M424.98,845.24H260.09l29.7,176.29c1.3,7.7,6.9,13.63,14.08,15.7c0.19,0.06,0.39,0.1,0.58,0.16
				c0.49,0.12,0.96,0.29,1.47,0.38c1.09,0.22,2.21,0.34,3.35,0.38c0.01,0.05,0.02,0.11,0.03,0.17l0.8-0.13c0,0,0,0,0.01,0h73.49
				c1.38,0,2.73-0.14,4.04-0.4c8.68-1.34,15.63-8.27,16.68-17.23l14.32-121.47l0.65-4.83h-0.08l5.67-48.11L424.98,845.24z
				 M393.88,957.7h-16.92l1.71-51.16h19.61L393.88,957.7z M399.91,906.53h16.2l-6.03,51.16h-14.56L399.91,906.53z M351.57,1014.42
				l-1.03-44.45h24.37l-1.48,44.45H351.57z M325.22,969.97h23.68l1.03,44.45h-21.24L325.22,969.97z M327.05,1014.42H307.2
				c-1.89-12-4.34-27.6-7-44.45h23.38L327.05,1014.42z M324.27,957.7l-3.99-51.16h27.16l1.18,51.16H324.27z M350.26,957.7
				l-1.18-51.16h27.95l-1.71,51.16H350.26z M348.79,894.26l-1.1-47.38h31.32l-1.58,47.38H348.79z M347.15,894.26h-27.84l-3.7-47.38
				h30.44L347.15,894.26z M317.67,894.26h-29.45c-1.04-6.54-2.03-12.74-2.92-18.31c-3.07-19.16-4.23-26.36-4.87-29.07h33.55
				L317.67,894.26z M318.63,906.53l3.99,51.16h-24.36c-0.82-5.19-1.65-10.44-2.48-15.7c-1.91-12.08-3.82-24.15-5.62-35.47H318.63z
				 M296.61,957.7H280.7l-8.62-51.16h16.43C291.03,922.35,293.81,939.94,296.61,957.7z M298.55,969.97
				c2.43,15.38,4.81,30.55,7,44.45h-15.29l-7.49-44.45H298.55z M375.06,1014.42l1.48-44.45h16.28l-3.82,44.45H375.06z
				 M379.07,894.26l1.58-47.38h22.73l-4.07,47.38H379.07z M278.87,846.88c0.65,3.43,3.66,22.07,7.69,47.38h-16.55l-7.98-47.38
				H278.87z M403.4,1014.42h-12.74l3.82-44.45h14.17L403.4,1014.42z M417.56,894.26h-16.59l4.07-47.38h18.11L417.56,894.26z"/>
		</g>
	</g>
</g>
<g>
	<g>
		<path class="st5" d="M1511.7,1038.63c0,0.33-300.95,0.61-672.1,0.61c-371.28,0-672.16-0.27-672.16-0.61
			c0-0.33,300.88-0.61,672.16-0.61C1210.76,1038.02,1511.7,1038.29,1511.7,1038.63z"/>
	</g>
</g>
<g>
	<g>
		<g>
			<polygon class="st5" points="919.06,535.61 661.17,535.61 680.23,351.9 940.31,351.9 			"/>
		</g>
		<g>
			<polygon class="st6" points="905.93,535.61 648.04,535.61 667.1,351.9 927.18,351.9 			"/>
		</g>
		<g>
			<polygon class="st0" points="896.37,527.29 657.06,527.29 674.75,356.83 916.09,356.83 			"/>
		</g>
	</g>
	<g>
		<g>
			<g>
				<path class="st5" d="M683,498.87c-0.33-0.03,2.04-25.68,5.3-57.27c3.26-31.61,6.17-57.19,6.51-57.16
					c0.33,0.03-2.04,25.67-5.3,57.28C686.25,473.31,683.33,498.9,683,498.87z"/>
			</g>
		</g>
		<g>
			<g>
				<path class="st5" d="M726.57,390.14c0,0.33-5.38,0.61-12.01,0.61c-6.64,0-12.01-0.27-12.01-0.61c0-0.33,5.38-0.61,12.01-0.61
					C721.19,389.53,726.57,389.8,726.57,390.14z"/>
			</g>
		</g>
		<g>
			<g>
				<path class="st7" d="M828.79,390.14c0,0.33-21.42,0.61-47.85,0.61c-26.43,0-47.85-0.27-47.85-0.61c0-0.33,21.42-0.61,47.85-0.61
					C807.36,389.53,828.79,389.8,828.79,390.14z"/>
			</g>
		</g>
		<g>
			<g>
				<path class="st5" d="M723.74,450.72c0,0.33-5.38,0.61-12.01,0.61c-6.64,0-12.01-0.27-12.01-0.61c0-0.33,5.38-0.61,12.01-0.61
					C718.36,450.11,723.74,450.38,723.74,450.72z"/>
			</g>
		</g>
		<g>
			<g>
				<path class="st7" d="M825.95,450.72c0,0.33-21.42,0.61-47.85,0.61c-26.43,0-47.85-0.27-47.85-0.61c0-0.33,21.42-0.61,47.85-0.61
					C804.53,450.11,825.95,450.38,825.95,450.72z"/>
			</g>
		</g>
		<g>
			<g>
				<path class="st7" d="M793.36,478.64c0,0.33-21.42,0.61-47.85,0.61c-26.43,0-47.85-0.27-47.85-0.61c0-0.33,21.42-0.61,47.85-0.61
					C771.93,478.04,793.36,478.31,793.36,478.64z"/>
			</g>
		</g>
		<g>
			<g>
				<path class="st7" d="M737.16,407.24c0,0.33-7.57,0.61-16.9,0.61c-9.34,0-16.9-0.27-16.9-0.61c0-0.33,7.57-0.61,16.9-0.61
					C729.59,406.64,737.16,406.91,737.16,407.24z"/>
			</g>
		</g>
		<g>
			<g>
				<path class="st7" d="M736.3,432.32c0,0.33-7.57,0.61-16.9,0.61c-9.34,0-16.9-0.27-16.9-0.61c0-0.33,7.57-0.61,16.9-0.61
					C728.73,431.71,736.3,431.98,736.3,432.32z"/>
			</g>
		</g>
		<g>
			<g>
				<path class="st7" d="M764.87,468.15c0,0.33-7.57,0.61-16.9,0.61c-9.34,0-16.9-0.27-16.9-0.61c0-0.33,7.57-0.61,16.9-0.61
					C757.31,467.55,764.87,467.82,764.87,468.15z"/>
			</g>
		</g>
		<g>
			<g>
				<path class="st5" d="M860.12,407.24c0,0.33-19.33,0.61-43.17,0.61c-23.85,0-43.18-0.27-43.18-0.61c0-0.33,19.33-0.61,43.18-0.61
					C840.79,406.64,860.12,406.91,860.12,407.24z"/>
			</g>
		</g>
		<g>
			<g>
				<path class="st5" d="M833.47,433.77c0,0.33-19.33,0.61-43.17,0.61c-23.85,0-43.18-0.27-43.18-0.61c0-0.33,19.33-0.61,43.18-0.61
					C814.14,433.16,833.47,433.43,833.47,433.77z"/>
			</g>
		</g>
		<g>
			<g>
				<path class="st5" d="M863.19,468.15c0,0.33-19.33,0.61-43.17,0.61c-23.85,0-43.18-0.27-43.18-0.61c0-0.33,19.33-0.61,43.18-0.61
					C843.85,467.55,863.19,467.82,863.19,468.15z"/>
			</g>
		</g>
		<g>
			<g>
				<path class="st5" d="M784.34,498.87c0,0.33-19.33,0.61-43.17,0.61c-23.85,0-43.18-0.27-43.18-0.61c0-0.33,19.33-0.61,43.18-0.61
					C765.01,498.26,784.34,498.53,784.34,498.87z"/>
			</g>
		</g>
		<g>
			<g>
				<path class="st5" d="M879.83,498.87c0,0.33-19.33,0.61-43.17,0.61c-23.85,0-43.18-0.27-43.18-0.61c0-0.33,19.33-0.61,43.18-0.61
					C860.5,498.26,879.83,498.53,879.83,498.87z"/>
			</g>
		</g>
		<g>
			<g>
				<path class="st5" d="M784.34,508.86c0,0.33-19.33,0.61-43.17,0.61c-23.85,0-43.18-0.27-43.18-0.61c0-0.33,19.33-0.61,43.18-0.61
					C765.01,508.25,784.34,508.53,784.34,508.86z"/>
			</g>
		</g>
		<g>
			<g>
				<path class="st5" d="M788.54,414.44c0,0.33-19.33,0.61-43.17,0.61c-23.85,0-43.18-0.27-43.18-0.61c0-0.33,19.33-0.61,43.18-0.61
					C769.21,413.84,788.54,414.11,788.54,414.44z"/>
			</g>
		</g>
		<g>
			<g>
				<path class="st6" d="M765.51,407.33c0,0.33-4.98,0.61-11.12,0.61c-6.14,0-11.12-0.27-11.12-0.61c0-0.33,4.98-0.61,11.12-0.61
					C760.53,406.73,765.51,407,765.51,407.33z"/>
			</g>
		</g>
		<g>
			<g>
				<path class="st6" d="M720.91,458.95c0,0.33-4.98,0.61-11.12,0.61c-6.14,0-11.12-0.27-11.12-0.61c0-0.33,4.98-0.61,11.12-0.61
					C715.93,458.35,720.91,458.62,720.91,458.95z"/>
			</g>
		</g>
		<g>
			<g>
				<path class="st6" d="M720.39,468.15c0,0.33-4.98,0.61-11.12,0.61c-6.14,0-11.12-0.27-11.12-0.61c0-0.33,4.98-0.61,11.12-0.61
					C715.41,467.55,720.39,467.82,720.39,468.15z"/>
			</g>
		</g>
		<g>
			<g>
				<path class="st5" d="M913.08,375.04c0,0.33-53.82,0.61-120.19,0.61c-66.4,0-120.2-0.27-120.2-0.61c0-0.33,53.81-0.61,120.2-0.61
					C859.27,374.43,913.08,374.7,913.08,375.04z"/>
			</g>
		</g>
		<g>
			<path class="st2" d="M691.75,366.91c0,1.57-1.28,2.85-2.85,2.85s-2.85-1.28-2.85-2.85c0-1.57,1.28-2.85,2.85-2.85
				S691.75,365.33,691.75,366.91z"/>
		</g>
		<g>
			<path class="st2" d="M703.99,366.91c0,1.57-1.28,2.85-2.85,2.85c-1.57,0-2.85-1.28-2.85-2.85c0-1.57,1.28-2.85,2.85-2.85
				C702.71,364.06,703.99,365.33,703.99,366.91z"/>
		</g>
		<g>
			<path class="st2" d="M716.22,366.91c0,1.57-1.28,2.85-2.85,2.85c-1.57,0-2.85-1.28-2.85-2.85c0-1.57,1.28-2.85,2.85-2.85
				C714.95,364.06,716.22,365.33,716.22,366.91z"/>
		</g>
	</g>
</g>
<g>
	<g>
		<g>
			<polygon class="st5" points="1257.86,541.19 986.57,541.19 1006.62,347.94 1280.21,347.94 			"/>
		</g>
		<g>
			<polygon class="st6" points="1244.04,541.19 972.76,541.19 992.81,347.94 1266.4,347.94 			"/>
		</g>
		<g>
			<polygon class="st3" points="1233.99,532.44 982.25,532.44 1000.86,353.12 1254.73,353.12 			"/>
		</g>
	</g>
	<g>
		<g>
			<g>
				<path class="st5" d="M1009.68,499.83c-0.33-0.03,2.18-27.01,5.61-60.24c3.43-33.25,6.48-60.16,6.81-60.13
					c0.33,0.03-2.18,27-5.61,60.25C1013.06,472.94,1010.01,499.86,1009.68,499.83z"/>
			</g>
		</g>
		<g>
			<g>
				<path class="st5" d="M1055.51,385.45c0,0.33-5.66,0.61-12.64,0.61c-6.98,0-12.64-0.27-12.64-0.61c0-0.33,5.66-0.61,12.64-0.61
					C1049.86,384.85,1055.51,385.12,1055.51,385.45z"/>
			</g>
		</g>
		<g>
			<g>
				<path class="st7" d="M1163.03,385.45c0,0.33-22.54,0.61-50.33,0.61c-27.8,0-50.34-0.27-50.34-0.61c0-0.33,22.53-0.61,50.34-0.61
					C1140.5,384.85,1163.03,385.12,1163.03,385.45z"/>
			</g>
		</g>
		<g>
			<g>
				<path class="st5" d="M1052.53,449.18c0,0.33-5.66,0.61-12.64,0.61c-6.98,0-12.64-0.27-12.64-0.61c0-0.33,5.66-0.61,12.64-0.61
					C1046.88,448.57,1052.53,448.84,1052.53,449.18z"/>
			</g>
		</g>
		<g>
			<g>
				<path class="st7" d="M1160.06,449.18c0,0.33-22.54,0.61-50.33,0.61c-27.8,0-50.34-0.27-50.34-0.61c0-0.33,22.53-0.61,50.34-0.61
					C1137.52,448.57,1160.06,448.84,1160.06,449.18z"/>
			</g>
		</g>
		<g>
			<g>
				<path class="st7" d="M1125.77,478.56c0,0.33-22.54,0.61-50.33,0.61c-27.8,0-50.34-0.27-50.34-0.61c0-0.33,22.53-0.61,50.34-0.61
					C1103.23,477.95,1125.77,478.22,1125.77,478.56z"/>
			</g>
		</g>
		<g>
			<g>
				<path class="st7" d="M1066.65,403.44c0,0.33-7.96,0.61-17.78,0.61c-9.82,0-17.78-0.27-17.78-0.61s7.96-0.61,17.78-0.61
					C1058.69,402.84,1066.65,403.11,1066.65,403.44z"/>
			</g>
		</g>
		<g>
			<g>
				<path class="st7" d="M1065.75,429.82c0,0.33-7.96,0.61-17.78,0.61c-9.82,0-17.78-0.27-17.78-0.61c0-0.33,7.96-0.61,17.78-0.61
					C1057.79,429.22,1065.75,429.49,1065.75,429.82z"/>
			</g>
		</g>
		<g>
			<g>
				<path class="st7" d="M1095.8,467.52c0,0.33-7.96,0.61-17.78,0.61c-9.82,0-17.78-0.27-17.78-0.61c0-0.33,7.96-0.61,17.78-0.61
					C1087.84,466.91,1095.8,467.18,1095.8,467.52z"/>
			</g>
		</g>
		<g>
			<g>
				<path class="st5" d="M1195.99,403.44c0,0.33-20.34,0.61-45.41,0.61c-25.09,0-45.42-0.27-45.42-0.61s20.33-0.61,45.42-0.61
					C1175.66,402.84,1195.99,403.11,1195.99,403.44z"/>
			</g>
		</g>
		<g>
			<g>
				<path class="st5" d="M1167.96,431.35c0,0.33-20.34,0.61-45.41,0.61c-25.09,0-45.42-0.27-45.42-0.61
					c0-0.33,20.33-0.61,45.42-0.61C1147.63,430.74,1167.96,431.02,1167.96,431.35z"/>
			</g>
		</g>
		<g>
			<g>
				<path class="st5" d="M1199.22,467.52c0,0.33-20.34,0.61-45.41,0.61c-25.09,0-45.42-0.27-45.42-0.61
					c0-0.33,20.33-0.61,45.42-0.61C1178.88,466.91,1199.22,467.18,1199.22,467.52z"/>
			</g>
		</g>
		<g>
			<g>
				<path class="st5" d="M1116.28,499.83c0,0.33-20.34,0.61-45.41,0.61c-25.09,0-45.42-0.27-45.42-0.61
					c0-0.33,20.33-0.61,45.42-0.61C1095.95,499.22,1116.28,499.49,1116.28,499.83z"/>
			</g>
		</g>
		<g>
			<g>
				<path class="st5" d="M1216.73,499.83c0,0.33-20.34,0.61-45.41,0.61c-25.09,0-45.42-0.27-45.42-0.61
					c0-0.33,20.33-0.61,45.42-0.61C1196.4,499.22,1216.73,499.49,1216.73,499.83z"/>
			</g>
		</g>
		<g>
			<g>
				<path class="st5" d="M1116.28,510.34c0,0.33-20.34,0.61-45.41,0.61c-25.09,0-45.42-0.27-45.42-0.61s20.33-0.61,45.42-0.61
					C1095.94,509.73,1116.28,510.01,1116.28,510.34z"/>
			</g>
		</g>
		<g>
			<g>
				<path class="st5" d="M1120.7,411.02c0,0.33-20.34,0.61-45.41,0.61c-25.09,0-45.42-0.27-45.42-0.61c0-0.33,20.33-0.61,45.42-0.61
					C1100.36,410.41,1120.7,410.68,1120.7,411.02z"/>
			</g>
		</g>
		<g>
			<g>
				<path class="st6" d="M1096.47,403.54c0,0.33-5.24,0.61-11.7,0.61c-6.46,0-11.7-0.27-11.7-0.61c0-0.33,5.24-0.61,11.7-0.61
					C1091.24,402.94,1096.47,403.21,1096.47,403.54z"/>
			</g>
		</g>
		<g>
			<g>
				<path class="st6" d="M1049.56,457.84c0,0.33-5.24,0.61-11.7,0.61c-6.46,0-11.7-0.27-11.7-0.61c0-0.33,5.24-0.61,11.7-0.61
					C1044.32,457.23,1049.56,457.5,1049.56,457.84z"/>
			</g>
		</g>
		<g>
			<g>
				<path class="st6" d="M1049.01,467.52c0,0.33-5.24,0.61-11.7,0.61c-6.46,0-11.7-0.27-11.7-0.61c0-0.33,5.24-0.61,11.7-0.61
					C1043.77,466.91,1049.01,467.18,1049.01,467.52z"/>
			</g>
		</g>
		<g>
			<g>
				<path class="st5" d="M1251.71,369.57c0,0.33-56.61,0.61-126.43,0.61c-69.84,0-126.44-0.27-126.44-0.61
					c0-0.33,56.6-0.61,126.44-0.61C1195.1,368.96,1251.71,369.23,1251.71,369.57z"/>
			</g>
		</g>
		<g>
			<path class="st2" d="M1018.89,361.02c0,1.65-1.34,3-3,3c-1.65,0-3-1.34-3-3s1.34-3,3-3
				C1017.54,358.02,1018.89,359.36,1018.89,361.02z"/>
		</g>
		<g>
			<path class="st2" d="M1031.75,361.02c0,1.65-1.34,3-3,3s-3-1.34-3-3s1.34-3,3-3S1031.75,359.36,1031.75,361.02z"/>
		</g>
		<g>
			<path class="st2" d="M1044.62,361.02c0,1.65-1.34,3-3,3c-1.65,0-3-1.34-3-3s1.34-3,3-3
				C1043.28,358.02,1044.62,359.36,1044.62,361.02z"/>
		</g>
	</g>
</g>
<g>
	<g>
		<g>
			<polygon class="st5" points="1103.06,312.42 844,312.42 863.15,127.88 1124.41,127.88 			"/>
		</g>
		<g>
			<polygon class="st6" points="1089.87,312.42 830.82,312.42 849.96,127.88 1111.22,127.88 			"/>
		</g>
		<g>
			<polygon class="st4" points="1080.27,304.06 839.88,304.06 857.65,132.83 1100.08,132.83 			"/>
		</g>
	</g>
	<g>
		<g>
			<g>
				<path class="st5" d="M866.31,275.33c-0.33-0.03,2.05-25.8,5.33-57.53c3.28-31.75,6.2-57.45,6.53-57.41
					c0.33,0.03-2.05,25.79-5.33,57.54C869.56,249.65,866.64,275.36,866.31,275.33z"/>
			</g>
		</g>
		<g>
			<g>
				<path class="st5" d="M910.08,166.11c0,0.33-5.4,0.61-12.07,0.61c-6.67,0-12.07-0.27-12.07-0.61c0-0.33,5.4-0.61,12.07-0.61
					C904.67,165.5,910.08,165.77,910.08,166.11z"/>
			</g>
		</g>
		<g>
			<g>
				<path class="st7" d="M1012.75,166.11c0,0.33-21.52,0.61-48.06,0.61c-26.55,0-48.07-0.27-48.07-0.61
					c0-0.33,21.52-0.61,48.07-0.61C991.23,165.5,1012.75,165.77,1012.75,166.11z"/>
			</g>
		</g>
		<g>
			<g>
				<path class="st5" d="M907.23,226.96c0,0.33-5.4,0.61-12.07,0.61c-6.67,0-12.07-0.27-12.07-0.61c0-0.33,5.4-0.61,12.07-0.61
					C901.83,226.35,907.23,226.63,907.23,226.96z"/>
			</g>
		</g>
		<g>
			<g>
				<path class="st7" d="M1009.91,226.96c0,0.33-21.52,0.61-48.06,0.61c-26.55,0-48.07-0.27-48.07-0.61
					c0-0.33,21.52-0.61,48.07-0.61C988.38,226.35,1009.91,226.63,1009.91,226.96z"/>
			</g>
		</g>
		<g>
			<g>
				<path class="st7" d="M977.16,255.01c0,0.33-21.52,0.61-48.06,0.61c-26.55,0-48.07-0.27-48.07-0.61c0-0.33,21.52-0.61,48.07-0.61
					C955.64,254.41,977.16,254.68,977.16,255.01z"/>
			</g>
		</g>
		<g>
			<g>
				<path class="st7" d="M920.71,183.29c0,0.33-7.6,0.61-16.98,0.61c-9.38,0-16.98-0.27-16.98-0.61c0-0.33,7.6-0.61,16.98-0.61
					C913.11,182.68,920.71,182.95,920.71,183.29z"/>
			</g>
		</g>
		<g>
			<g>
				<path class="st7" d="M919.85,208.47c0,0.33-7.6,0.61-16.98,0.61c-9.38,0-16.98-0.27-16.98-0.61c0-0.33,7.6-0.61,16.98-0.61
					C912.25,207.87,919.85,208.14,919.85,208.47z"/>
			</g>
		</g>
		<g>
			<g>
				<path class="st7" d="M948.55,244.47c0,0.33-7.6,0.61-16.98,0.61c-9.38,0-16.98-0.27-16.98-0.61c0-0.33,7.6-0.61,16.98-0.61
					C940.95,243.87,948.55,244.14,948.55,244.47z"/>
			</g>
		</g>
		<g>
			<g>
				<path class="st5" d="M1044.23,183.29c0,0.33-19.42,0.61-43.37,0.61c-23.96,0-43.37-0.27-43.37-0.61
					c0-0.33,19.41-0.61,43.37-0.61C1024.81,182.68,1044.23,182.95,1044.23,183.29z"/>
			</g>
		</g>
		<g>
			<g>
				<path class="st5" d="M1017.46,209.93c0,0.33-19.42,0.61-43.37,0.61c-23.96,0-43.37-0.27-43.37-0.61
					c0-0.33,19.41-0.61,43.37-0.61C998.04,209.33,1017.46,209.6,1017.46,209.93z"/>
			</g>
		</g>
		<g>
			<g>
				<path class="st5" d="M1047.3,244.47c0,0.33-19.42,0.61-43.37,0.61c-23.96,0-43.37-0.27-43.37-0.61c0-0.33,19.41-0.61,43.37-0.61
					C1027.89,243.87,1047.3,244.14,1047.3,244.47z"/>
			</g>
		</g>
		<g>
			<g>
				<path class="st5" d="M968.11,275.33c0,0.33-19.42,0.61-43.37,0.61c-23.96,0-43.37-0.27-43.37-0.61s19.41-0.61,43.37-0.61
					C948.69,274.72,968.11,274.99,968.11,275.33z"/>
			</g>
		</g>
		<g>
			<g>
				<path class="st5" d="M1064.03,275.33c0,0.33-19.42,0.61-43.37,0.61c-23.96,0-43.37-0.27-43.37-0.61s19.41-0.61,43.37-0.61
					C1044.61,274.72,1064.03,274.99,1064.03,275.33z"/>
			</g>
		</g>
		<g>
			<g>
				<path class="st5" d="M968.1,285.36c0,0.33-19.42,0.61-43.37,0.61c-23.96,0-43.37-0.27-43.37-0.61c0-0.33,19.41-0.61,43.37-0.61
					C948.68,284.76,968.1,285.03,968.1,285.36z"/>
			</g>
		</g>
		<g>
			<g>
				<path class="st5" d="M972.32,190.52c0,0.33-19.42,0.61-43.37,0.61c-23.96,0-43.37-0.27-43.37-0.61c0-0.33,19.41-0.61,43.37-0.61
					C952.9,189.91,972.32,190.18,972.32,190.52z"/>
			</g>
		</g>
		<g>
			<g>
				<path class="st6" d="M949.19,183.38c0,0.33-5,0.61-11.17,0.61c-6.17,0-11.17-0.27-11.17-0.61c0-0.33,5-0.61,11.17-0.61
					C944.19,182.78,949.19,183.05,949.19,183.38z"/>
			</g>
		</g>
		<g>
			<g>
				<path class="st6" d="M904.39,235.23c0,0.33-5,0.61-11.17,0.61c-6.17,0-11.17-0.27-11.17-0.61c0-0.33,5-0.61,11.17-0.61
					C899.39,234.62,904.39,234.9,904.39,235.23z"/>
			</g>
		</g>
		<g>
			<g>
				<path class="st6" d="M903.86,244.47c0,0.33-5,0.61-11.17,0.61c-6.17,0-11.17-0.27-11.17-0.61c0-0.33,5-0.61,11.17-0.61
					C898.86,243.87,903.86,244.14,903.86,244.47z"/>
			</g>
		</g>
		<g>
			<g>
				<path class="st5" d="M1097.43,150.94c0,0.33-54.06,0.61-120.73,0.61c-66.7,0-120.75-0.27-120.75-0.61s54.05-0.61,120.75-0.61
					C1043.37,150.33,1097.43,150.6,1097.43,150.94z"/>
			</g>
		</g>
		<g>
			<circle class="st2" cx="872.24" cy="142.77" r="2.86"/>
		</g>
		<g>
			<circle class="st2" cx="884.53" cy="142.77" r="2.86"/>
		</g>
		<g>
			<circle class="st2" cx="896.82" cy="142.77" r="2.86"/>
		</g>
	</g>
</g>
<g>
	<g>
		<rect x="644.02" y="1009.55" class="st5" width="20.17" height="27.53"/>
	</g>
	<g>
		<g>
			<g>
				<g>
					<g>
						<g>
							
								<rect x="772.38" y="679.57" transform="matrix(-1 -1.224647e-16 1.224647e-16 -1 1723.8429 1367.8605)" class="st5" width="179.09" height="8.71"/>
						</g>
					</g>
					<g>
						<g>
							<polygon class="st5" points="979.22,688.29 1012.81,562.4 872.98,562.4 842.56,688.29 							"/>
						</g>
					</g>
				</g>
				<g>
					<g>
						<polygon class="st0" points="850.94,678.76 975.86,678.76 1004.94,568.22 879.37,568.22 						"/>
					</g>
				</g>
			</g>
			<g>
				<polygon class="st1" points="882.48,589.63 874.74,620.94 957.56,620.94 966.4,589.63 				"/>
			</g>
			<g>
				<g>
					<path class="st6" d="M948.93,585.5c0,0.33-14.53,0.61-32.45,0.61c-17.92,0-32.45-0.27-32.45-0.61c0-0.33,14.53-0.61,32.45-0.61
						C934.4,584.9,948.93,585.17,948.93,585.5z"/>
				</g>
			</g>
			<g>
				<g>
					<path class="st5" d="M911.18,595.62c0,0.33-5.86,0.61-13.08,0.61c-7.22,0-13.08-0.27-13.08-0.61s5.85-0.61,13.08-0.61
						C905.32,595.02,911.18,595.29,911.18,595.62z"/>
				</g>
			</g>
			<g>
				<g>
					<path class="st5" d="M932.15,595.13c0,0.33-3.81,0.61-8.51,0.61c-4.7,0-8.51-0.27-8.51-0.61c0-0.33,3.81-0.61,8.51-0.61
						C928.34,594.52,932.15,594.79,932.15,595.13z"/>
				</g>
			</g>
			<g>
				<g>
					<path class="st6" d="M955.84,601.3c0,0.33-16.02,0.61-35.78,0.61c-19.76,0-35.78-0.27-35.78-0.61c0-0.33,16.02-0.61,35.78-0.61
						C939.82,600.69,955.84,600.96,955.84,601.3z"/>
				</g>
			</g>
			<g>
				<g>
					<path class="st7" d="M905.99,606.48c0,0.33-5.19,0.61-11.6,0.61c-6.41,0-11.6-0.27-11.6-0.61s5.19-0.61,11.6-0.61
						C900.8,605.87,905.99,606.14,905.99,606.48z"/>
				</g>
			</g>
			<g>
				<g>
					<path class="st6" d="M949.42,613.88c0,0.33-14.86,0.61-33.19,0.61c-18.33,0-33.19-0.27-33.19-0.61
						c0-0.33,14.86-0.61,33.19-0.61C934.56,613.27,949.42,613.55,949.42,613.88z"/>
				</g>
			</g>
			<g>
				<g>
					<path class="st6" d="M900.57,629.92c0,0.33-5.75,0.61-12.83,0.61c-7.09,0-12.83-0.27-12.83-0.61c0-0.33,5.74-0.61,12.83-0.61
						C894.82,629.31,900.57,629.58,900.57,629.92z"/>
				</g>
			</g>
			<g>
				<g>
					<path class="st5" d="M922.53,630.02c0,0.33-3.93,0.57-8.76,0.53c-4.84-0.04-8.76-0.34-8.76-0.68c0-0.33,3.93-0.57,8.77-0.53
						C918.61,629.38,922.53,629.68,922.53,630.02z"/>
				</g>
			</g>
			<g>
				<g>
					<path class="st5" d="M934.86,629.43c0,0.33-1.66,0.61-3.7,0.61c-2.04,0-3.7-0.27-3.7-0.61c0-0.33,1.66-0.61,3.7-0.61
						C933.21,628.82,934.86,629.09,934.86,629.43z"/>
				</g>
			</g>
			<g>
				<g>
					<path class="st7" d="M883.54,636.33c0,0.33-1.82,0.61-4.07,0.61c-2.25,0-4.07-0.27-4.07-0.61c0-0.33,1.82-0.61,4.07-0.61
						C881.72,635.73,883.54,636,883.54,636.33z"/>
				</g>
			</g>
			<g>
				<g>
					<path class="st5" d="M907.97,636.33c0,0.33-4.36,0.61-9.75,0.61c-5.38,0-9.75-0.27-9.75-0.61c0-0.33,4.36-0.61,9.75-0.61
						C903.6,635.73,907.97,636,907.97,636.33z"/>
				</g>
			</g>
			<g>
				<g>
					<path class="st6" d="M966.2,635.59c0,0.33-11.66,0.61-26.03,0.61c-14.38,0-26.03-0.27-26.03-0.61c0-0.33,11.65-0.61,26.03-0.61
						C954.54,634.99,966.2,635.26,966.2,635.59z"/>
				</g>
			</g>
			<g>
				<g>
					<path class="st5" d="M882.31,643c0,0.33-1.88,0.61-4.19,0.61c-2.32,0-4.19-0.27-4.19-0.61c0-0.33,1.88-0.61,4.19-0.61
						C880.43,642.39,882.31,642.66,882.31,643z"/>
				</g>
			</g>
			<g>
				<g>
					<path class="st5" d="M895.14,642.75c0,0.33-2.26,0.61-5.06,0.61c-2.79,0-5.06-0.27-5.06-0.61c0-0.33,2.26-0.61,5.06-0.61
						C892.87,642.14,895.14,642.42,895.14,642.75z"/>
				</g>
			</g>
			<g>
				<g>
					<path class="st6" d="M933.38,642.26c0,0.33-7.35,0.61-16.41,0.61c-9.06,0-16.41-0.27-16.41-0.61c0-0.33,7.35-0.61,16.41-0.61
						C926.04,641.65,933.38,641.92,933.38,642.26z"/>
				</g>
			</g>
			<g>
				<g>
					<path class="st6" d="M913.15,653.85c0,0.33-8.89,0.61-19.86,0.61c-10.97,0-19.86-0.27-19.86-0.61c0-0.33,8.89-0.61,19.86-0.61
						C904.26,653.25,913.15,653.52,913.15,653.85z"/>
				</g>
			</g>
			<g>
				<g>
					<path class="st7" d="M936.34,653.36c0,0.33-4.03,0.61-9.01,0.61c-4.97,0-9.01-0.27-9.01-0.61c0-0.33,4.03-0.61,9.01-0.61
						C932.31,652.75,936.34,653.03,936.34,653.36z"/>
				</g>
			</g>
			<g>
				<g>
					<path class="st5" d="M970.76,653.36c0,0.33-6.68,0.61-14.93,0.61c-8.25,0-14.93-0.27-14.93-0.61c0-0.33,6.68-0.61,14.93-0.61
						C964.08,652.75,970.76,653.03,970.76,653.36z"/>
				</g>
			</g>
			<g>
				<g>
					<path class="st5" d="M962.75,585.01c0,0.33-1.38,0.61-3.08,0.61c-1.7,0-3.08-0.27-3.08-0.61c0-0.33,1.38-0.61,3.08-0.61
						C961.36,584.41,962.75,584.68,962.75,585.01z"/>
				</g>
			</g>
			<g>
				<g>
					<path class="st7" d="M899.83,580.82c0,0.33-3.04,0.61-6.79,0.61c-3.75,0-6.79-0.27-6.79-0.61c0-0.33,3.04-0.61,6.79-0.61
						C896.79,580.21,899.83,580.48,899.83,580.82z"/>
				</g>
			</g>
			<g>
				<path class="st3" d="M1002.85,576.17c-42.3,0-83.29,0-125.59,0l2.11-7.95h125.56L1002.85,576.17z"/>
			</g>
			<g>
				<circle class="st4" cx="884.66" cy="572.24" r="1.37"/>
			</g>
			<g>
				<circle class="st4" cx="889.39" cy="572.24" r="1.37"/>
			</g>
			<g>
				<circle class="st4" cx="894.11" cy="572.24" r="1.37"/>
			</g>
		</g>
		<g>
			<g>
				<g>
					<g>
						<rect x="858.14" y="699.99" class="st5" width="297.73" height="173.73"/>
					</g>
					<g>
						<rect x="858.14" y="699.99" class="st6" width="135.63" height="173.73"/>
					</g>
					<g>
						<g>
							<g>
								<path class="st5" d="M979.96,759c-0.02-0.02-0.03-0.32-0.05-0.9c-0.01-0.64-0.03-1.47-0.05-2.54
									c-0.03-2.28-0.06-5.52-0.11-9.65c-0.06-8.38-0.14-20.38-0.23-35.18l0.44,0.44c-28.2,0.04-66.69,0.1-109.1,0.17
									c-0.55,0.54,0.73-0.74,0.6-0.6v0.01v0.02v0.05v0.1v0.2v0.4l0,0.79v1.58l0,3.16c0,2.1,0,4.18,0,6.26
									c0,4.15,0,8.25-0.01,12.28c-0.01,8.07-0.01,15.9-0.02,23.4l-0.58-0.58c31.61,0.11,58.79,0.21,78.16,0.27
									c9.64,0.07,17.34,0.12,22.7,0.16c2.6,0.03,4.64,0.06,6.1,0.07c0.65,0.01,1.18,0.03,1.59,0.04
									C979.75,758.98,979.94,758.99,979.96,759c0.01,0.01-0.15,0.02-0.49,0.04c-0.4,0.01-0.9,0.02-1.52,0.04
									c-1.43,0.02-3.43,0.04-5.98,0.07c-5.33,0.04-12.98,0.09-22.57,0.16c-19.46,0.07-46.78,0.16-78.55,0.27l-0.58,0l0-0.58
									c-0.01-7.5-0.01-15.32-0.02-23.4c0-4.04,0-8.14-0.01-12.28c0-2.07,0-4.16,0-6.26l0-3.16v-1.58v-0.79v-0.4v-0.2v-0.1v-0.05
									v-0.02v-0.01c-0.13,0.13,1.15-1.15,0.61-0.61c42.41,0.07,80.9,0.13,109.1,0.17l0.44,0l0,0.44c-0.1,14.91-0.18,27-0.23,35.44
									c-0.05,4.09-0.08,7.29-0.11,9.55c-0.02,1.03-0.04,1.84-0.05,2.46C979.99,758.74,979.97,759.02,979.96,759z"/>
							</g>
						</g>
						<g>
							<g>
								<path class="st5" d="M930.04,734.87c-0.22,0.08-0.08-1.87-2.09-3.35c-0.96-0.69-2.49-1.05-3.94-0.49
									c-1.44,0.52-2.66,2.05-2.64,3.83c-0.02,1.78,1.21,3.31,2.64,3.83c1.45,0.56,2.98,0.21,3.94-0.49
									C929.96,736.74,929.82,734.79,930.04,734.87c0.07,0,0.19,0.42,0.08,1.19c-0.11,0.76-0.54,1.91-1.66,2.84
									c-1.08,0.93-2.96,1.51-4.84,0.85c-1.86-0.59-3.5-2.56-3.47-4.88c-0.02-2.32,1.62-4.29,3.47-4.88
									c1.87-0.65,3.76-0.08,4.84,0.85c1.12,0.93,1.55,2.08,1.66,2.84C930.23,734.45,930.11,734.87,930.04,734.87z"/>
							</g>
						</g>
					</g>
					<g>
						<g>
							<g>
								<path class="st5" d="M979.96,812.13c-0.02-0.02-0.03-0.32-0.05-0.89c-0.01-0.64-0.03-1.47-0.05-2.54
									c-0.03-2.28-0.06-5.52-0.11-9.65c-0.06-8.38-0.14-20.38-0.23-35.18l0.44,0.44c-28.2,0.04-66.69,0.1-109.1,0.17
									c-0.55,0.54,0.73-0.74,0.6-0.6v0.01v0.02v0.05v0.1v0.2v0.4l0,0.79v1.58l0,3.16c0,2.1,0,4.18,0,6.26
									c0,4.15,0,8.25-0.01,12.28c-0.01,8.07-0.01,15.9-0.02,23.4l-0.58-0.58c31.61,0.11,58.79,0.21,78.16,0.27
									c9.64,0.07,17.34,0.12,22.7,0.16c2.6,0.03,4.64,0.06,6.1,0.07c0.65,0.01,1.18,0.03,1.59,0.04
									C979.75,812.1,979.94,812.11,979.96,812.13c0.01,0.01-0.15,0.02-0.49,0.04c-0.4,0.01-0.9,0.02-1.52,0.04
									c-1.43,0.02-3.43,0.04-5.98,0.07c-5.33,0.04-12.98,0.09-22.57,0.16c-19.46,0.07-46.78,0.16-78.55,0.27l-0.58,0l0-0.58
									c-0.01-7.5-0.01-15.32-0.02-23.4c0-4.04,0-8.14-0.01-12.28c0-2.07,0-4.16,0-6.26l0-3.16v-1.58v-0.79v-0.4v-0.2v-0.1v-0.05
									v-0.02v-0.01c-0.13,0.13,1.15-1.15,0.61-0.61c42.41,0.07,80.9,0.13,109.1,0.17l0.44,0l0,0.44c-0.1,14.91-0.18,27-0.23,35.44
									c-0.05,4.09-0.08,7.29-0.11,9.55c-0.02,1.03-0.04,1.84-0.05,2.46C979.99,811.87,979.97,812.14,979.96,812.13z"/>
							</g>
						</g>
						<g>
							<g>
								<path class="st5" d="M930.04,788c-0.22,0.08-0.08-1.87-2.09-3.35c-0.96-0.69-2.49-1.05-3.94-0.49
									c-1.44,0.52-2.66,2.05-2.64,3.83c-0.02,1.78,1.21,3.31,2.64,3.83c1.45,0.56,2.98,0.21,3.94-0.49
									C929.96,789.86,929.82,787.91,930.04,788c0.07,0,0.19,0.42,0.08,1.19c-0.11,0.76-0.54,1.91-1.66,2.84
									c-1.08,0.93-2.96,1.51-4.84,0.85c-1.86-0.59-3.5-2.56-3.47-4.88c-0.02-2.32,1.62-4.29,3.47-4.88
									c1.87-0.65,3.76-0.08,4.84,0.85c1.12,0.93,1.55,2.08,1.66,2.84C930.23,787.58,930.11,788,930.04,788z"/>
							</g>
						</g>
					</g>
					<g>
						<g>
							<g>
								<path class="st5" d="M979.96,865.25c-0.02-0.02-0.03-0.32-0.05-0.89c-0.01-0.64-0.03-1.47-0.05-2.54
									c-0.03-2.28-0.06-5.52-0.11-9.65c-0.06-8.38-0.14-20.38-0.23-35.18l0.44,0.44c-28.2,0.04-66.69,0.1-109.1,0.17
									c-0.55,0.54,0.73-0.74,0.6-0.6v0.01v0.02v0.05v0.1v0.2v0.4l0,0.79v1.58l0,3.16c0,2.1,0,4.18,0,6.26
									c0,4.15,0,8.25-0.01,12.28c-0.01,8.07-0.01,15.9-0.02,23.4l-0.58-0.58c31.61,0.11,58.79,0.21,78.16,0.27
									c9.64,0.07,17.34,0.12,22.7,0.16c2.6,0.03,4.64,0.06,6.1,0.07c0.65,0.01,1.18,0.03,1.59,0.04
									C979.75,865.23,979.94,865.24,979.96,865.25c0.01,0.01-0.15,0.02-0.49,0.04c-0.4,0.01-0.9,0.02-1.52,0.04
									c-1.43,0.02-3.43,0.04-5.98,0.07c-5.33,0.04-12.98,0.09-22.57,0.16c-19.46,0.07-46.78,0.16-78.55,0.27l-0.58,0l0-0.58
									c-0.01-7.5-0.01-15.33-0.02-23.4c0-4.04,0-8.14-0.01-12.28c0-2.07,0-4.16,0-6.26l0-3.16v-1.58v-0.79v-0.4v-0.2v-0.1v-0.05
									v-0.02v-0.01c-0.13,0.13,1.15-1.15,0.61-0.61c42.41,0.07,80.9,0.13,109.1,0.17l0.44,0l0,0.44c-0.1,14.91-0.18,27-0.23,35.44
									c-0.05,4.09-0.08,7.29-0.11,9.55c-0.02,1.03-0.04,1.84-0.05,2.46C979.99,864.99,979.97,865.26,979.96,865.25z"/>
							</g>
						</g>
						<g>
							<g>
								<path class="st5" d="M930.04,841.12c-0.22,0.08-0.08-1.87-2.09-3.35c-0.96-0.69-2.49-1.05-3.94-0.49
									c-1.44,0.52-2.66,2.05-2.64,3.83c-0.02,1.78,1.21,3.31,2.64,3.83c1.45,0.56,2.98,0.21,3.94-0.49
									C929.96,842.98,929.82,841.04,930.04,841.12c0.07,0,0.19,0.42,0.08,1.19c-0.11,0.76-0.54,1.91-1.66,2.84
									c-1.08,0.93-2.96,1.51-4.84,0.85c-1.86-0.59-3.5-2.56-3.47-4.88c-0.02-2.32,1.62-4.29,3.47-4.88
									c1.87-0.65,3.76-0.08,4.84,0.85c1.12,0.93,1.55,2.08,1.66,2.84C930.23,840.7,930.11,841.12,930.04,841.12z"/>
							</g>
						</g>
					</g>
				</g>
				<g>
					<polygon class="st5" points="659.85,1015.13 460.86,1014.98 460.86,699.99 659.85,699.99 					"/>
				</g>
				<g>
					<rect x="451.26" y="687.87" class="st5" width="715.43" height="16.51"/>
				</g>
				<g>
					<rect x="460.86" y="704.38" class="st5" width="22.18" height="334.17"/>
				</g>
				<g>
					<rect x="1133.69" y="704.38" class="st5" width="22.18" height="334.25"/>
				</g>
				<g>
					<rect x="993.77" y="704.38" class="st5" width="22.18" height="334.25"/>
				</g>
			</g>
			<g>
				<g>
					<path class="st6" d="M551.87,687.87c0,0.33-21.32,0.61-47.62,0.61c-26.31,0-47.63-0.27-47.63-0.61s21.32-0.61,47.63-0.61
						C530.54,687.27,551.87,687.54,551.87,687.87z"/>
				</g>
			</g>
		</g>
		<g>
			<g>
				<g>
					<g>
						<g>
							<g>
								<g>
									<g>
										<path class="st8" d="M761.04,1022.28l0.57-23.9l-44.76-1.35l-1.2,34.95l2.77,0.26c12.33,1.06,62.77,4.51,71.1,2.25
											C798.81,1031.99,761.04,1022.28,761.04,1022.28z"/>
									</g>
								</g>
							</g>
						</g>
						<g class="st9">
							<g>
								<g>
									<path class="st2" d="M779.47,1027.69c0,0,13.21,4.25,11.48,6.39c-1.73,2.15-52.83,0.58-75.31-2.09l0.1-1l59.59,2.34
										C775.34,1033.33,776.86,1027.72,779.47,1027.69z"/>
								</g>
							</g>
						</g>
						<g>
							<g>
								<g>
									<g>
										<path class="st5" d="M715.05,1030.94c0,0.02,0.26,0.06,0.77,0.11c0.66,0.06,1.39,0.13,2.21,0.2
											c2.21,0.16,4.92,0.36,8.12,0.6c6.86,0.46,16.35,0.97,26.84,1.3c10.49,0.33,20,0.42,26.88,0.39
											c3.21-0.04,5.93-0.06,8.15-0.09c0.82-0.02,1.55-0.04,2.21-0.06c0.51-0.02,0.77-0.04,0.77-0.06c0-0.02-0.27-0.04-0.77-0.05
											c-0.67-0.01-1.39-0.03-2.21-0.04c-2.21-0.02-4.93-0.05-8.14-0.08c-6.88-0.07-16.37-0.22-26.86-0.55
											c-10.48-0.33-19.97-0.78-26.84-1.14c-3.21-0.17-5.92-0.31-8.13-0.43c-0.82-0.04-1.55-0.07-2.21-0.1
											C715.31,1030.92,715.05,1030.92,715.05,1030.94z"/>
									</g>
								</g>
							</g>
						</g>
						<g>
							<g>
								<g>
									<g>
										<path class="st5" d="M775.31,1034.03c0.16,0.03,0.35-1.91,1.64-3.84c1.25-1.95,2.96-2.89,2.87-3.03
											c-0.03-0.14-1.97,0.65-3.32,2.73C775.12,1031.96,775.17,1034.05,775.31,1034.03z"/>
									</g>
								</g>
							</g>
						</g>
						<g>
							<g>
								<g>
									<g>
										<path class="st5" d="M762.31,1026.92c0.12,0.08,0.78-0.67,1.46-1.67c0.68-1.01,1.14-1.89,1.01-1.98
											c-0.12-0.08-0.78,0.67-1.46,1.67C762.64,1025.95,762.18,1026.84,762.31,1026.92z"/>
									</g>
								</g>
							</g>
						</g>
						<g>
							<g>
								<g>
									<g>
										<path class="st5" d="M758.74,1024.89c0.1,0.11,0.82-0.34,1.61-1c0.79-0.67,1.36-1.3,1.26-1.42c-0.1-0.11-0.82,0.33-1.61,1
											C759.21,1024.14,758.64,1024.78,758.74,1024.89z"/>
									</g>
								</g>
							</g>
						</g>
						<g>
							<g>
								<g>
									<g>
										<path class="st5" d="M756.58,1020.6c-0.01,0.15,1.04,0.32,2.33,0.37c1.29,0.05,2.34-0.02,2.35-0.17
											c0.01-0.15-1.03-0.31-2.33-0.37C757.64,1020.37,756.59,1020.45,756.58,1020.6z"/>
									</g>
								</g>
							</g>
						</g>
						<g>
							<g>
								<g>
									<g>
										<path class="st5" d="M755.88,1017.59c-0.05,0.13,1.07,0.68,2.58,0.84c1.51,0.17,2.73-0.14,2.7-0.28
											c-0.02-0.16-1.21-0.1-2.64-0.26C757.09,1017.74,755.94,1017.45,755.88,1017.59z"/>
									</g>
								</g>
							</g>
						</g>
						<g>
							<g>
								<g>
									<g>
										<path class="st5" d="M763.94,1023.06c-0.01,0.06,1.09,0.23,2.88,0.07c0.89-0.08,1.94-0.26,3.08-0.58
											c0.57-0.18,1.16-0.31,1.78-0.67c0.29-0.18,0.61-0.44,0.74-0.87c0.13-0.43-0.08-0.92-0.4-1.16
											c-2.71-1.51-5.51-0.05-6.57,1.34c-0.58,0.71-0.86,1.41-1,1.89c-0.13,0.49-0.13,0.77-0.1,0.77
											c0.1,0.04,0.23-1.13,1.39-2.41c0.57-0.63,1.42-1.24,2.51-1.52c1.02-0.27,2.47-0.31,3.42,0.34
											c0.45,0.35,0.25,0.88-0.27,1.17c-0.48,0.29-1.1,0.46-1.64,0.64c-1.1,0.34-2.12,0.55-2.99,0.68
											C765.04,1023,763.95,1022.97,763.94,1023.06z"/>
									</g>
								</g>
							</g>
						</g>
						<g>
							<g>
								<g>
									<g>
										<path class="st5" d="M764.68,1023.23c0.04,0.03,0.49-0.69,0.39-1.99c-0.05-0.64-0.26-1.4-0.72-2.13
											c-0.49-0.65-1.11-1.55-2.35-1.54c-0.67,0.06-1.02,0.81-0.93,1.3c0.04,0.51,0.25,0.95,0.45,1.3
											c0.41,0.73,0.87,1.33,1.3,1.78c0.87,0.91,1.58,1.27,1.61,1.21c0.05-0.07-0.56-0.53-1.32-1.47
											c-0.38-0.47-0.79-1.06-1.15-1.76c-0.38-0.62-0.61-1.72,0.11-1.83c0.72-0.05,1.43,0.69,1.86,1.28
											c0.43,0.64,0.66,1.31,0.76,1.89C764.88,1022.46,764.59,1023.2,764.68,1023.23z"/>
									</g>
								</g>
							</g>
						</g>
						<g>
							<g>
								<g>
									<g>
										<path class="st5" d="M716.34,1018.72c0.01,0.1,1.29-0.08,3.3,0.22c2,0.28,4.76,1.19,7.12,3.19
											c2.36,2.01,3.71,4.59,4.31,6.51c0.62,1.94,0.65,3.23,0.75,3.22c0.03,0,0.06-0.32,0.03-0.9c-0.03-0.58-0.14-1.42-0.41-2.43
											c-0.53-2-1.87-4.72-4.33-6.81c-2.47-2.09-5.36-2.97-7.43-3.16c-1.04-0.1-1.89-0.08-2.46-0.01
											C716.64,1018.61,716.33,1018.69,716.34,1018.72z"/>
									</g>
								</g>
							</g>
						</g>
						<g>
							<g>
								<g>
									<g>
										<path class="st5" d="M721.55,1000.24c-0.15-0.01-0.45,4.1-0.67,9.18c-0.22,5.08-0.28,9.2-0.13,9.21
											c0.15,0.01,0.45-4.1,0.67-9.18C721.64,1004.37,721.7,1000.25,721.55,1000.24z"/>
									</g>
								</g>
							</g>
						</g>
						<g>
							<g>
								<g>
									<g>
										<path class="st5" d="M737.65,1027.94c-0.02,0.14,2.88,0.71,6.51,0.85c3.64,0.15,6.57-0.18,6.56-0.32
											c-0.01-0.16-2.94-0.07-6.54-0.22C740.59,1028.1,737.67,1027.78,737.65,1027.94z"/>
									</g>
								</g>
							</g>
						</g>
						<g>
							<g>
								<g>
									<g>
										<path class="st5" d="M728.88,1027.65c-0.11,0.11,0.22,0.63,0.5,1.31c0.29,0.68,0.42,1.28,0.58,1.27
											c0.14,0,0.25-0.7-0.08-1.48C729.55,1027.97,728.98,1027.55,728.88,1027.65z"/>
									</g>
								</g>
							</g>
						</g>
						<g>
							<g>
								<g>
									<g>
										<path class="st5" d="M725.7,1023.44c-0.11,0.1,0.16,0.58,0.61,1.06c0.45,0.48,0.9,0.79,1.01,0.69
											c0.11-0.1-0.16-0.58-0.61-1.06C726.26,1023.65,725.81,1023.34,725.7,1023.44z"/>
									</g>
								</g>
							</g>
						</g>
						<g>
							<g>
								<g>
									<g>
										<path class="st5" d="M721.03,1021.41c0.03,0.15,0.62,0.17,1.27,0.42c0.66,0.24,1.11,0.62,1.23,0.52
											c0.12-0.08-0.23-0.73-1.04-1.03C721.68,1021.02,720.99,1021.27,721.03,1021.41z"/>
									</g>
								</g>
							</g>
						</g>
						<g>
							<g>
								<g>
									<g>
										<path class="st5" d="M717.69,1020.42c-0.06,0.14,0.19,0.38,0.56,0.53c0.37,0.16,0.71,0.17,0.77,0.03
											c0.06-0.14-0.19-0.38-0.56-0.53C718.09,1020.3,717.75,1020.28,717.69,1020.42z"/>
									</g>
								</g>
							</g>
						</g>
					</g>
				</g>
				<g class="st10">
					<polygon points="716.43,1017.53 761.17,1018.16 761.26,1012.76 716.16,1014.68 					"/>
				</g>
			</g>
			<g>
				<g>
					<g>
						<g>
							<g>
								<g>
									<g>
										<path class="st8" d="M831.64,1025.99l-0.07-23.91l-44.78-0.16l-0.27,34.97l2.78,0.19c12.35,0.73,62.87,2.85,71.14,0.37
											C869.66,1034.7,831.64,1025.99,831.64,1025.99z"/>
									</g>
								</g>
							</g>
						</g>
						<g class="st9">
							<g>
								<g>
									<path class="st2" d="M850.21,1030.91c0,0,13.32,3.9,11.65,6.09c-1.67,2.19-52.8,1.97-75.34-0.1l0.08-1l59.63,0.76
										C846.23,1036.66,847.61,1031.01,850.21,1030.91z"/>
								</g>
							</g>
						</g>
						<g>
							<g>
								<g>
									<g>
										<path class="st5" d="M785.9,1035.87c0,0.02,0.26,0.05,0.77,0.09c0.66,0.04,1.39,0.09,2.21,0.14
											c2.21,0.1,4.93,0.23,8.14,0.39c6.87,0.28,16.37,0.53,26.87,0.59c10.5,0.05,20-0.11,26.88-0.32
											c3.21-0.12,5.93-0.22,8.14-0.3c0.82-0.05,1.55-0.08,2.21-0.12c0.51-0.03,0.77-0.06,0.77-0.08c0-0.02-0.27-0.03-0.77-0.03
											c-0.67,0.01-1.39,0.01-2.21,0.02c-2.21,0.04-4.93,0.08-8.14,0.13c-6.88,0.11-16.37,0.21-26.87,0.16
											c-10.49-0.05-19.99-0.25-26.86-0.43c-3.21-0.08-5.93-0.15-8.14-0.21c-0.82-0.02-1.55-0.03-2.21-0.04
											C786.16,1035.84,785.9,1035.85,785.9,1035.87z"/>
									</g>
								</g>
							</g>
						</g>
						<g>
							<g>
								<g>
									<g>
										<path class="st5" d="M846.22,1037.36c0.17,0.02,0.3-1.92,1.54-3.88c1.2-1.98,2.88-2.97,2.79-3.1
											c-0.03-0.14-1.95,0.7-3.25,2.82C845.97,1035.3,846.08,1037.39,846.22,1037.36z"/>
									</g>
								</g>
							</g>
						</g>
						<g>
							<g>
								<g>
									<g>
										<path class="st5" d="M833.03,1030.6c0.13,0.08,0.76-0.69,1.42-1.71c0.66-1.03,1.09-1.92,0.96-2
											c-0.13-0.08-0.76,0.69-1.42,1.71C833.34,1029.62,832.91,1030.52,833.03,1030.6z"/>
									</g>
								</g>
							</g>
						</g>
						<g>
							<g>
								<g>
									<g>
										<path class="st5" d="M829.42,1028.67c0.1,0.11,0.81-0.36,1.58-1.05c0.77-0.69,1.32-1.34,1.22-1.45
											c-0.1-0.11-0.81,0.36-1.58,1.05C829.86,1027.9,829.32,1028.55,829.42,1028.67z"/>
									</g>
								</g>
							</g>
						</g>
						<g>
							<g>
								<g>
									<g>
										<path class="st5" d="M827.14,1024.43c0,0.15,1.04,0.29,2.33,0.31c1.29,0.02,2.34-0.09,2.34-0.24
											c0-0.15-1.04-0.29-2.33-0.31C828.19,1024.17,827.14,1024.28,827.14,1024.43z"/>
									</g>
								</g>
							</g>
						</g>
						<g>
							<g>
								<g>
									<g>
										<path class="st5" d="M826.37,1021.45c-0.05,0.13,1.09,0.65,2.6,0.77c1.52,0.12,2.72-0.21,2.69-0.35
											c-0.02-0.15-1.21-0.07-2.65-0.19C827.57,1021.56,826.42,1021.3,826.37,1021.45z"/>
									</g>
								</g>
							</g>
						</g>
						<g>
							<g>
								<g>
									<g>
										<path class="st5" d="M834.57,1026.7c0,0.06,1.1,0.2,2.88-0.01c0.89-0.1,1.94-0.31,3.07-0.66c0.56-0.2,1.15-0.34,1.76-0.71
											c0.29-0.19,0.6-0.45,0.72-0.89c0.12-0.43-0.11-0.92-0.43-1.15c-2.74-1.44-5.51,0.1-6.53,1.52
											c-0.57,0.72-0.83,1.43-0.95,1.92c-0.12,0.49-0.11,0.77-0.08,0.78c0.1,0.04,0.2-1.13,1.32-2.45
											c0.55-0.65,1.39-1.27,2.46-1.59c1.02-0.3,2.46-0.37,3.43,0.25c0.46,0.34,0.28,0.88-0.23,1.18
											c-0.47,0.3-1.09,0.49-1.62,0.68c-1.09,0.37-2.11,0.61-2.97,0.76C835.67,1026.61,834.57,1026.61,834.57,1026.7z"/>
									</g>
								</g>
							</g>
						</g>
						<g>
							<g>
								<g>
									<g>
										<path class="st5" d="M835.31,1026.84c0.04,0.03,0.47-0.7,0.34-2c-0.07-0.64-0.3-1.39-0.78-2.11
											c-0.51-0.64-1.15-1.52-2.39-1.48c-0.67,0.08-1,0.84-0.89,1.32c0.05,0.5,0.28,0.94,0.48,1.29c0.42,0.72,0.91,1.3,1.35,1.75
											c0.9,0.89,1.61,1.23,1.64,1.17c0.05-0.07-0.57-0.52-1.36-1.43c-0.39-0.46-0.82-1.04-1.2-1.73
											c-0.39-0.61-0.66-1.7,0.06-1.83c0.72-0.07,1.45,0.65,1.89,1.23c0.45,0.62,0.7,1.3,0.81,1.87
											C835.49,1026.08,835.22,1026.82,835.31,1026.84z"/>
									</g>
								</g>
							</g>
						</g>
						<g>
							<g>
								<g>
									<g>
										<path class="st5" d="M786.86,1023.62c0.01,0.1,1.28-0.12,3.31,0.13c2,0.23,4.79,1.07,7.21,3.01
											c2.41,1.94,3.83,4.49,4.48,6.39c0.68,1.92,0.74,3.21,0.84,3.2c0.03,0,0.05-0.32,0.01-0.9c-0.04-0.58-0.18-1.42-0.48-2.42
											c-0.58-1.99-1.99-4.67-4.51-6.7c-2.52-2.02-5.44-2.83-7.51-2.96c-1.04-0.08-1.89-0.03-2.46,0.05
											C787.17,1023.5,786.86,1023.59,786.86,1023.62z"/>
									</g>
								</g>
							</g>
						</g>
						<g>
							<g>
								<g>
									<g>
										<path class="st5" d="M791.58,1005.01c-0.15,0-0.34,4.11-0.43,9.2c-0.09,5.08-0.03,9.2,0.12,9.21
											c0.15,0,0.34-4.11,0.43-9.2C791.78,1009.13,791.73,1005.01,791.58,1005.01z"/>
									</g>
								</g>
							</g>
						</g>
						<g>
							<g>
								<g>
									<g>
										<path class="st5" d="M808.41,1032.27c-0.02,0.14,2.9,0.63,6.53,0.68c3.64,0.06,6.57-0.36,6.55-0.5
											c-0.01-0.16-2.94,0.01-6.54-0.05C811.35,1032.36,808.43,1032.11,808.41,1032.27z"/>
									</g>
								</g>
							</g>
						</g>
						<g>
							<g>
								<g>
									<g>
										<path class="st5" d="M799.64,1032.22c-0.11,0.11,0.24,0.62,0.53,1.29c0.31,0.67,0.46,1.27,0.61,1.26
											c0.14,0,0.23-0.71-0.12-1.48C800.32,1032.51,799.73,1032.11,799.64,1032.22z"/>
									</g>
								</g>
							</g>
						</g>
						<g>
							<g>
								<g>
									<g>
										<path class="st5" d="M796.35,1028.09c-0.11,0.1,0.18,0.57,0.64,1.04c0.46,0.47,0.92,0.77,1.03,0.66
											c0.11-0.1-0.18-0.57-0.64-1.04C796.92,1028.28,796.46,1027.98,796.35,1028.09z"/>
									</g>
								</g>
							</g>
						</g>
						<g>
							<g>
								<g>
									<g>
										<path class="st5" d="M791.62,1026.18c0.03,0.15,0.63,0.15,1.28,0.38c0.66,0.22,1.13,0.59,1.25,0.49
											c0.12-0.08-0.25-0.72-1.07-1C792.27,1025.77,791.58,1026.05,791.62,1026.18z"/>
									</g>
								</g>
							</g>
						</g>
						<g>
							<g>
								<g>
									<g>
										<path class="st5" d="M788.26,1025.28c-0.05,0.14,0.2,0.37,0.57,0.52c0.37,0.15,0.72,0.15,0.77,0.01
											c0.05-0.14-0.2-0.37-0.57-0.52S788.31,1025.14,788.26,1025.28z"/>
									</g>
								</g>
							</g>
						</g>
					</g>
				</g>
				<g class="st10">
					<polygon points="786.93,1022.42 831.66,1021.87 831.62,1016.48 786.58,1019.59 					"/>
				</g>
			</g>
			<g>
				<g>
					<path class="st11" d="M732.77,616.8l17.93,54c4.84,14.58,17.58,17.08,32.95,17.08h99.74V665.5l-91.13-13.01l-21.72-55.48
						L732.77,616.8z"/>
				</g>
				<g>
					<g>
						<path class="st11" d="M894.36,660.85l7.91-3.75c0,0,8.53-16.49,10.49-15.83c1.96,0.66,2.53,5.51-0.9,13.09l10.52-3
							c0,0,22.79,10.53,21.79,11.95c-1.01,1.42-2.88,4.78-7.84,2.24c-4.96-2.54-11.47-5.52-11.47-5.52l-12.28,3.51l15.84,2.01
							l14.89,13.55c0,0-4.89,3.66-9.11-0.23l-38.69,8.31l-12.12,0.69V665.5L894.36,660.85z"/>
					</g>
					<g>
						<g>
							<path class="st12" d="M934.2,678.88c-0.16,0.11-0.88-1.04-2.28-2.55c-0.7-0.75-1.65-1.52-2.82-2.18
								c-1.13-0.63-2.59-0.9-4.18-1.09c-6.45-0.76-11.65-1.65-11.61-1.98c0.04-0.33,5.3,0.01,11.76,0.78
								c1.62,0.2,3.27,0.52,4.59,1.33c1.26,0.78,2.23,1.71,2.91,2.58C933.88,677.54,934.31,678.81,934.2,678.88z"/>
						</g>
					</g>
					<g>
						<g>
							<path class="st12" d="M928.14,680.43c-0.15,0-0.27-0.8-1.35-1.03c-1.1-0.2-2.87-0.41-4.7-0.6c-3.72-0.38-6.77-0.35-6.8-0.69
								c-0.04-0.32,3.07-0.9,6.92-0.51c1.94,0.21,3.58,0.52,4.87,1c0.66,0.27,1.09,0.81,1.18,1.22
								C928.35,680.22,928.22,680.44,928.14,680.43z"/>
						</g>
					</g>
				</g>
			</g>
			<g>
				<g>
					<g>
						<g>
							<g>
								<g>
									<g>
										<path class="st11" d="M648.57,394.79l-5.41,109.7l46.97,4.42l2.6-26.62c0,0,16.57,4.09,21.6-11.23
											c3.21-9.79,6.07-86.48,6.07-86.48L648.57,394.79z"/>
									</g>
								</g>
								<g>
									<g>
										<path class="st5" d="M724.45,397.4c1.3,10.27-13.06,16.21-13.06,16.21l-2.51,24.29c-1.99-0.32-6.75-0.06-6.75-0.06
											c1.21-11.4-13.47-9.17-14.96-1.4c-1.44,7.47,7.07,12.46,7.07,12.46c-5.87,9.01-8.26,13.77-16.59,22.21
											c-9.02,9.14-13.87,9.88-23.19,9.61l-10.26-0.48c0,0-3.65-8.77-6.33-29.47c-1.29-9.96-9.06-23.01-6.85-39.21
											c6.29-46.02,50.39-41.16,50.39-41.16C704.29,371.03,721.43,373.57,724.45,397.4z"/>
									</g>
								</g>
							</g>
						</g>
					</g>
					<g>
						<path class="st5" d="M690.65,371.72c9.96,0.26,20.28,1.04,29.03,5.82s15.49,14.59,13.69,24.39c-1.66,0.3-3.31,0.6-4.97,0.9
							c-0.68-1.22-1.37-2.45-2.05-3.67c0.02,1.95,0.04,3.91,0.06,5.87c-2.92,0.82-5.84,1.63-8.76,2.44
							c-1.3-7.45-3.93-14.66-7.75-21.18"/>
					</g>
				</g>
				<g>
					<g>
						<path class="st6" d="M650.44,422.21c-0.07,0.02-0.37-0.58-0.78-1.72c-0.41-1.14-0.89-2.84-1.26-4.99
							c-0.76-4.27-0.85-10.48,1.13-16.89c1.98-6.42,5.56-11.49,8.59-14.59c1.52-1.57,2.87-2.7,3.85-3.42
							c0.98-0.72,1.57-1.05,1.61-0.99c0.13,0.16-2.02,1.77-4.83,4.98c-2.81,3.18-6.15,8.17-8.06,14.37
							c-1.91,6.2-1.96,12.2-1.44,16.41C649.76,419.61,650.64,422.15,650.44,422.21z"/>
					</g>
				</g>
				<g>
					<g>
						<path class="st6" d="M659.69,418.37c-0.13,0.04-1.04-2.04-1.85-5.63c-0.82-3.57-1.39-8.68-0.9-14.28
							c0.5-5.6,1.94-10.53,3.37-13.91c1.42-3.39,2.68-5.28,2.8-5.22c0.39,0.14-4.07,8.2-4.96,19.23
							C657.11,409.59,660.1,418.29,659.69,418.37z"/>
					</g>
				</g>
				<g>
					<g>
						<path class="st6" d="M719.65,401.36c-0.22,0.05-0.63-2.84-2.53-7.02c-1.86-4.16-5.53-9.59-11.32-13.51
							c-5.8-3.92-12.2-5.31-16.75-5.49c-4.59-0.21-7.42,0.48-7.46,0.26c-0.02-0.07,0.67-0.32,1.95-0.59
							c1.28-0.28,3.18-0.53,5.53-0.53c4.67-0.04,11.37,1.26,17.41,5.34c6.03,4.09,9.72,9.82,11.42,14.17
							c0.87,2.19,1.35,4.04,1.57,5.33C719.7,400.62,719.72,401.34,719.65,401.36z"/>
					</g>
				</g>
				<g>
					<g>
						<path class="st5" d="M651.89,362.85c0.08-0.3,3.62,0.81,6.75,3.98c3.16,3.15,4.24,6.69,3.95,6.77
							c-0.33,0.15-1.84-2.97-4.8-5.91C654.85,364.7,651.74,363.18,651.89,362.85z"/>
					</g>
				</g>
				<g>
					<g>
						<path class="st6" d="M662.88,362.89c0.33,0.12-0.37,2.56-0.24,5.61c0.09,3.05,0.98,5.43,0.65,5.58
							c-0.27,0.17-1.75-2.2-1.86-5.54C661.29,365.21,662.6,362.75,662.88,362.89z"/>
					</g>
				</g>
			</g>
			<g>
				<g>
					<g>
						<g>
							<g>
								<g>
									<g>
										<path class="st8" d="M724.32,605.03l7.67,25.99l48.68-22.04c-1.75-5.44-9.8-29.67-25.21-68.13
											c-8.59-21.43-27.69-36.89-50.46-40.68c-15.93-2.65-33.27-4.72-46.61-4.57c-27.3,0.3-67.49,17.36-72.89,44.13
											c-4.12,20.43-0.15,56.49-0.15,100.31l3.56,83.73l139.89,4.74L724.32,605.03z"/>
									</g>
								</g>
							</g>
						</g>
					</g>
					<g class="st10">
						<g>
							<path d="M585.49,620.66c17.02,3.48,34.5-0.03,51.85-1.06c10.52-0.62,22.18-1.76,30.5,4.7c6.6,5.13,9.25,13.74,11.15,21.88
								c7.26,31,8.58,51.79,10.21,83.59L605,734.87L585.49,620.66z"/>
						</g>
					</g>
				</g>
				<g>
					<g>
						<path class="st4" d="M751.36,532.83c0,0.33-36.73,0.61-82.02,0.61c-45.31,0-82.03-0.27-82.03-0.61
							c0-0.33,36.72-0.61,82.03-0.61C714.64,532.23,751.36,532.5,751.36,532.83z"/>
					</g>
				</g>
				<g>
					<g>
						<path class="st4" d="M761.57,556.33c0,0.33-39.93,0.61-89.18,0.61c-49.26,0-89.18-0.27-89.18-0.61
							c0-0.33,39.92-0.61,89.18-0.61C721.64,555.73,761.57,556,761.57,556.33z"/>
					</g>
				</g>
				<g>
					<g>
						<path class="st4" d="M774.41,585.83c0,0.33-42.61,0.61-95.16,0.61c-52.57,0-95.17-0.27-95.17-0.61
							c0-0.33,42.6-0.61,95.17-0.61C731.8,585.22,774.41,585.49,774.41,585.83z"/>
					</g>
				</g>
				<g>
					<g>
						<path class="st4" d="M723.25,617.62c0,0.33-13.31,0.61-29.72,0.61c-16.42,0-29.73-0.27-29.73-0.61s13.31-0.61,29.73-0.61
							C709.94,617.02,723.25,617.29,723.25,617.62z"/>
					</g>
				</g>
				<g>
					<g>
						<path class="st4" d="M726.02,652.1c0,0.33-13.93,0.49-31.11,0.35c-17.18-0.14-31.11-0.52-31.1-0.86
							c0-0.33,13.93-0.49,31.11-0.35C712.1,651.38,726.03,651.76,726.02,652.1z"/>
					</g>
				</g>
				<g>
					<g>
						<path class="st4" d="M727.38,680.2c0,0.08-0.88,0.12-2.45,0.1c-1.84-0.03-4.06-0.08-6.67-0.13
							c-5.63-0.13-13.4-0.28-21.98-0.29c-8.58,0-16.35,0.14-21.98,0.26c-2.6,0.05-4.82,0.09-6.67,0.12
							c-1.58,0.01-2.45-0.02-2.45-0.1c0-0.08,0.86-0.21,2.43-0.37c1.57-0.16,3.84-0.33,6.66-0.5c5.63-0.34,13.41-0.62,22.02-0.62
							c8.6,0.01,16.39,0.29,22.01,0.64c2.81,0.17,5.09,0.35,6.66,0.51C726.52,679.98,727.38,680.11,727.38,680.2z"/>
					</g>
				</g>
				<g>
					<g>
						<path class="st4" d="M726.94,702.88c0,0.33-13.72,0.61-30.64,0.61c-16.93,0-30.65-0.27-30.65-0.61s13.72-0.61,30.65-0.61
							C713.22,702.27,726.94,702.54,726.94,702.88z"/>
					</g>
				</g>
				<g>
					<g>
						<path class="st4" d="M731.09,509.79c0,0.33-26.93,0.61-60.14,0.61c-33.22,0-60.14-0.27-60.14-0.61
							c0-0.33,26.92-0.61,60.14-0.61C704.16,509.18,731.09,509.45,731.09,509.79z"/>
					</g>
				</g>
				<g>
					<g>
						<path class="st5" d="M727.91,514.16c0.02,0.12-1.4,0.21-3.72,1.12c-2.28,0.94-5.42,2.93-8.06,6.52
							c-2.67,3.55-4.47,8.69-4.81,14.58c-0.41,5.88,0.46,12.4,1.47,19.18c2.16,13.56,5.46,25.59,7.82,34.29
							c1.15,4.2,2.11,7.67,2.83,10.3c0.65,2.44,0.98,3.8,0.9,3.82c-0.08,0.02-0.56-1.29-1.35-3.69c-0.79-2.4-1.9-5.88-3.2-10.2
							c-2.57-8.65-6.01-20.68-8.19-34.34c-1.01-6.81-1.87-13.4-1.39-19.45c0.41-6.03,2.38-11.39,5.24-15.01
							c2.82-3.66,6.17-5.62,8.58-6.45c1.22-0.4,2.2-0.59,2.86-0.65C727.55,514.12,727.9,514.12,727.91,514.16z"/>
					</g>
				</g>
				<g>
					<g>
						<path class="st5" d="M779.15,602.34c0.07,0.14-2.53,1.67-6.86,3.93c-4.32,2.27-10.37,5.25-17.16,8.31
							c-6.79,3.06-13.03,5.62-17.59,7.36c-4.56,1.74-7.43,2.69-7.49,2.54c-0.06-0.16,2.69-1.39,7.16-3.33
							c4.47-1.94,10.64-4.62,17.42-7.67c6.77-3.06,12.87-5.91,17.28-7.97C776.33,603.44,779.07,602.19,779.15,602.34z"/>
					</g>
				</g>
			</g>
			<g>
				<g>
					<path class="st5" d="M632.17,725.08L799.32,731c27.13,0.96,48.51,23.46,48.09,50.6l-6.94,238.73l-64.57-2.15l4.79-223.51
						l-148.52-3.91V725.08z"/>
				</g>
				<g>
					<path class="st5" d="M563.12,725.08L730.27,731c27.13,0.96,48.51,23.46,48.09,50.6l-6.94,238.73l-65.42-5.21l5.65-220.45
						l-148.52-3.91V725.08z"/>
				</g>
			</g>
			<g>
				<g>
					<g>
						<g>
							<rect x="671.77" y="811.81" class="st6" width="16.44" height="196.99"/>
						</g>
						<g>
							<g>
								<path class="st6" d="M533.82,620.61v145.01c0,19.02,15.42,34.43,34.43,34.43h96.56V620.61c0-8.48-6.87-15.35-15.35-15.35
									h-100.3C540.69,605.26,533.82,612.13,533.82,620.61z"/>
							</g>
							<g>
								<path class="st6" d="M794.78,811.81H559.63l0,0c0-14.1,11.43-25.52,25.52-25.52h184.1
									C783.35,786.29,794.78,797.72,794.78,811.81L794.78,811.81z"/>
							</g>
						</g>
						<g>
							<g>
								<path class="st5" d="M664.82,782.9c0.04,0,0.06,0.38,0.07,1.11c0.02,0.73-0.07,1.81-0.38,3.17
									c-0.57,2.68-2.28,6.66-6.3,9.77c-1.99,1.52-4.52,2.82-7.47,3.32c-2.98,0.5-6.04,0.26-9.29,0.35
									c-6.51,0.02-13.64,0.05-21.13,0.07c-14.99,0.02-28.57-0.04-38.39-0.14c-4.77-0.07-8.69-0.13-11.63-0.18
									c-1.26-0.04-2.3-0.08-3.16-0.11c-0.72-0.04-1.1-0.08-1.1-0.12c0-0.04,0.38-0.08,1.1-0.12c0.86-0.03,1.91-0.07,3.16-0.12
									c2.94-0.05,6.87-0.12,11.63-0.2c9.82-0.12,23.4-0.2,38.39-0.22c7.48,0.01,14.61,0.02,21.13,0.03
									c3.23-0.05,6.38,0.21,9.12-0.22c2.78-0.43,5.2-1.62,7.13-3.02c3.89-2.87,5.66-6.63,6.36-9.2
									C664.75,784.44,664.68,782.89,664.82,782.9z"/>
							</g>
						</g>
						<g>
							<g>
								<path class="st5" d="M694.42,812.32c0,0.33-6.46,0.61-14.42,0.61c-7.97,0-14.43-0.27-14.43-0.61
									c0-0.33,6.46-0.61,14.43-0.61C687.96,811.71,694.42,811.98,694.42,812.32z"/>
							</g>
						</g>
					</g>
					<g>
						<g>
							<path class="st6" d="M765.96,801.32c-0.17,0.02-0.68-2.44-1.46-6.91c-0.78-4.47-1.84-10.95-3.09-18.96
								c-1.34-8.01-2.12-17.69-6.53-27.31c-2.22-4.78-5.13-9.5-8.74-13.95c-3.64-4.42-8.1-8.4-13.11-11.81
								c-5.02-3.4-10.41-6.02-15.89-7.66c-5.46-1.65-10.94-2.72-16.21-2.8c-10.64-0.25-20.35-0.2-28.44-0.35
								c-8.11-0.11-14.67-0.24-19.2-0.39c-4.53-0.14-7.04-0.3-7.04-0.47c0-0.17,2.51-0.33,7.04-0.47c4.53-0.14,11.09-0.28,19.2-0.38
								c8.12-0.07,17.73-0.29,28.52-0.17c5.46,0.02,11.16,1.07,16.84,2.76c5.7,1.68,11.32,4.38,16.54,7.92
								c5.21,3.54,9.83,7.7,13.59,12.31c3.72,4.63,6.7,9.57,8.94,14.55c0.53,1.25,0.98,2.53,1.46,3.77c0.24,0.62,0.47,1.24,0.7,1.85
								c0.18,0.63,0.35,1.26,0.52,1.88c0.35,1.24,0.69,2.47,1.02,3.68c0.22,1.23,0.44,2.44,0.66,3.64
								c0.83,4.76,1.26,9.14,1.82,13.17c1.03,8.04,1.83,14.56,2.32,19.07C765.93,798.79,766.13,801.29,765.96,801.32z"/>
						</g>
					</g>
				</g>
				<g>
					<path class="st6" d="M751.91,1026.65h-2.33c0-38.58-31.38-69.96-69.96-69.96c-38.57,0-69.96,31.38-69.96,69.96h-2.33
						c0-39.86,32.43-72.29,72.28-72.29C719.48,954.36,751.91,986.79,751.91,1026.65z"/>
				</g>
				<g>
					<path class="st5" d="M619.34,1030.23c0,5.99-4.85,10.84-10.84,10.84c-5.99,0-10.84-4.85-10.84-10.84s4.85-10.84,10.84-10.84
						C614.49,1019.4,619.34,1024.25,619.34,1030.23z"/>
				</g>
				<g>
					<path class="st5" d="M762.13,1028.74c0,5.99-4.85,10.84-10.84,10.84c-5.99,0-10.84-4.85-10.84-10.84
						c0-5.99,4.85-10.84,10.84-10.84C757.28,1017.9,762.13,1022.75,762.13,1028.74z"/>
				</g>
				<g>
					<g>
						<path class="st6" d="M751.21,1008.8c0,0.33-31.45,0.61-70.25,0.61c-38.81,0-70.25-0.27-70.25-0.61s31.45-0.61,70.25-0.61
							C719.76,1008.19,751.21,1008.46,751.21,1008.8z"/>
					</g>
				</g>
			</g>
		</g>
	</g>
</g>
<g>
	<g>
		<g>
			<g>
				<path class="st8" d="M511.22,556.28c3.51,2.03,5.83,5.77,6.75,9.72c0.92,3.95,0.56,8.1-0.36,12.05
					c-1.78,7.64-7.1,14.94-12.56,20.58c-5.85-6.45-6.2-16.55-6.05-21.69C499.24,568.81,504.6,554.29,511.22,556.28"/>
			</g>
		</g>
		<g>
			<g>
				<path class="st8" d="M511.14,612.29c-0.53-4.5,1.85-9.09,5.56-11.69c3.71-2.6,8.55-3.32,13-2.45c2.06,0.4,4.23,1.27,5.21,3.11
					c0.92,1.73,0.54,3.94-0.56,5.56c-1.1,1.62-2.81,2.72-4.58,3.57C523.7,613.27,517.3,614.95,511.14,612.29"/>
			</g>
		</g>
		<g>
			<g>
				<g>
					<path class="st5" d="M501.33,629.29c-0.1-0.04,0.4-1.95,1.47-4.97c0.54-1.52,1.41-3.27,2.58-5.05c1.18-1.76,2.43-3.73,4.06-5.6
						c3.21-3.77,7.09-6.27,10.13-7.38c1.52-0.57,2.81-0.83,3.7-0.97c0.9-0.1,1.39-0.12,1.4-0.06c0.03,0.16-1.96,0.36-4.87,1.6
						c-2.89,1.23-6.57,3.72-9.7,7.38c-1.57,1.8-2.85,3.75-4.05,5.47c-1.19,1.73-2.07,3.37-2.68,4.83
						C502.17,627.49,501.46,629.34,501.33,629.29z"/>
				</g>
			</g>
		</g>
		<g>
			<g>
				<g>
					<path class="st5" d="M508.12,567.7c0.06,0,0.04,0.94-0.04,2.62c-0.08,1.69-0.24,4.12-0.46,7.13
						c-0.44,6.02-1.14,14.32-2.14,23.47c-1,9.15-2.14,17.42-3.09,23.37c-0.47,2.98-0.89,5.39-1.21,7.04
						c-0.32,1.66-0.52,2.57-0.58,2.56c-0.06-0.01,0.03-0.94,0.24-2.61c0.24-1.83,0.55-4.21,0.93-7.08
						c0.79-5.98,1.83-14.24,2.83-23.38c0.93-9.07,1.77-17.28,2.39-23.43c0.3-2.88,0.55-5.27,0.74-7.1
						C507.93,568.62,508.06,567.69,508.12,567.7z"/>
				</g>
			</g>
		</g>
		<g>
			<g>
				<path class="st8" d="M500.95,614.11c-1.7-9.4-8.24-17.79-16.93-21.73c-2.22-1-5.09-1.63-6.86,0.04c-1.77,1.67-1.3,4.6-0.37,6.85
					c3.88,9.36,13.9,15.82,24.03,15.48"/>
			</g>
		</g>
		<g>
			<g>
				<g>
					<path class="st5" d="M485.72,599.3c0.03-0.05,0.47,0.17,1.24,0.61c0.78,0.43,1.85,1.12,3.16,2.02
						c2.56,1.84,6.13,4.57,8.85,8.68c1.35,2.05,2.28,4.23,2.82,6.29c0.55,2.06,0.63,3.99,0.62,5.59c-0.07,1.6-0.22,2.88-0.44,3.74
						c-0.19,0.87-0.32,1.34-0.38,1.33c-0.17-0.03,0.23-1.96,0.2-5.07c-0.06-1.55-0.21-3.41-0.78-5.38
						c-0.56-1.96-1.47-4.04-2.77-6.01c-2.62-3.96-6.05-6.72-8.49-8.66C487.26,600.52,485.64,599.42,485.72,599.3z"/>
				</g>
			</g>
		</g>
	</g>
	<g>
		<g>
			<g>
				<path class="st5" d="M500.2,687.87L500.2,687.87c-16.06,0-29.08-13.02-29.08-29.08v-29.08h58.15v29.08
					C529.27,674.85,516.25,687.87,500.2,687.87z"/>
			</g>
		</g>
		<g>
			<g>
				<g>
					<path class="st1" d="M529.27,644.02c0.03,0.03-0.25,0.32-0.8,0.82c-0.66,0.59-1.45,1.3-2.41,2.15
						c-2.25,1.93-5.23,4.5-8.77,7.55l-0.21,0.18l-0.25-0.15c-4.87-2.93-10.65-6.4-16.85-10.13l-0.03-0.02l0.51-0.01
						c-5.75,3.73-11.12,7.2-15.68,10.16l-0.24,0.16l-0.22-0.17c-3.9-3.05-7.18-5.62-9.65-7.55c-1.06-0.86-1.93-1.57-2.66-2.16
						c-0.6-0.51-0.91-0.8-0.89-0.83c0.03-0.03,0.39,0.19,1.04,0.63c0.76,0.54,1.68,1.2,2.79,1.98c2.52,1.86,5.87,4.34,9.85,7.28
						l-0.47-0.02c4.54-2.99,9.88-6.51,15.6-10.28l0.25-0.16l0.26,0.16l0.03,0.02c6.18,3.78,11.92,7.3,16.77,10.27l-0.46,0.03
						c3.63-2.95,6.69-5.43,8.99-7.29c1.01-0.79,1.85-1.44,2.55-1.99C528.92,644.21,529.25,643.99,529.27,644.02z"/>
				</g>
			</g>
		</g>
		<g>
			<g>
				<g>
					<path class="st1" d="M529.27,638.21c0.03,0.03-0.25,0.32-0.8,0.82c-0.66,0.59-1.45,1.3-2.41,2.15
						c-2.25,1.93-5.23,4.5-8.77,7.55l-0.21,0.18l-0.25-0.15c-4.87-2.93-10.65-6.4-16.85-10.13l-0.03-0.02l0.51-0.01
						c-5.75,3.73-11.12,7.2-15.68,10.16l-0.24,0.16l-0.22-0.17c-3.9-3.05-7.18-5.62-9.65-7.55c-1.06-0.86-1.93-1.57-2.66-2.16
						c-0.6-0.51-0.91-0.8-0.89-0.83c0.03-0.03,0.39,0.19,1.04,0.63c0.76,0.54,1.68,1.2,2.79,1.98c2.52,1.86,5.87,4.34,9.85,7.28
						l-0.47-0.02c4.54-2.99,9.88-6.51,15.6-10.28l0.25-0.16l0.26,0.16l0.03,0.02c6.18,3.78,11.92,7.3,16.77,10.27l-0.46,0.03
						c3.63-2.95,6.69-5.43,8.99-7.29c1.01-0.79,1.85-1.44,2.55-1.99C528.92,638.4,529.25,638.18,529.27,638.21z"/>
				</g>
			</g>
		</g>
		<g>
			<g>
				<g>
					<path class="st1" d="M529.27,649.94c0.03,0.03-0.25,0.32-0.8,0.82c-0.66,0.59-1.45,1.3-2.41,2.15
						c-2.25,1.93-5.23,4.5-8.77,7.55l-0.21,0.18l-0.25-0.15c-4.87-2.93-10.65-6.4-16.85-10.13l-0.03-0.02l0.51-0.01
						c-5.75,3.73-11.12,7.21-15.68,10.16l-0.24,0.16l-0.22-0.17c-3.9-3.05-7.18-5.62-9.65-7.55c-1.06-0.86-1.93-1.57-2.66-2.16
						c-0.6-0.51-0.91-0.8-0.89-0.83c0.03-0.03,0.39,0.19,1.04,0.63c0.76,0.54,1.68,1.2,2.79,1.98c2.52,1.86,5.87,4.34,9.85,7.28
						l-0.47-0.02c4.54-2.99,9.88-6.51,15.6-10.28l0.25-0.17l0.26,0.16l0.03,0.02c6.18,3.78,11.92,7.3,16.77,10.27l-0.46,0.03
						c3.63-2.94,6.69-5.43,8.99-7.29c1.01-0.79,1.85-1.44,2.55-1.99C528.92,650.13,529.25,649.9,529.27,649.94z"/>
				</g>
			</g>
		</g>
	</g>
</g>
<g>
	<g>
		<g>
			<g>
				<g>
					<g>
						<path class="st8" d="M1282.71,756.16c-12.05,1.94-17.44,16.75-16.39,28.91c1.05,12.16,6.05,24.05,4.72,36.18
							c-1.7,15.41-13.34,28.43-14.7,43.87c-1.6,18.21,11.28,34.36,15.12,52.24c1.87,8.7,1.61,17.89,4.85,26.17
							c5.46,13.97,21.47,22.94,36.23,20.3c14.76-2.64,26.68-16.59,26.96-31.59c0.27-13.98-8.36-27.15-7.31-41.1
							c0.77-10.31,6.82-20.08,5.52-30.33c-1.54-12.2-12.85-20.87-16.84-32.5c-3.99-11.64-0.16-24.46-1.53-36.69
							C1316.87,769.69,1304.71,754.4,1282.71,756.16"/>
					</g>
				</g>
			</g>
		</g>
		<g>
			<g>
				<g>
					<g>
						<path class="st8" d="M1221.17,862.36c-2.05,20.32,6.94,44.23,17.39,61.78c10.45,17.55,26.65,31.61,45.5,39.49
							c2.13,0.89,4.77,1.64,6.56,0.19c1.46-1.19,1.65-3.32,1.66-5.21c0.14-21.39-6.82-42.76-19.52-59.96
							C1260.04,881.44,1241.65,868.5,1221.17,862.36"/>
					</g>
				</g>
			</g>
		</g>
		<g class="st13">
			<g>
				<g>
					<g>
						<path d="M1221.17,862.36c-2.05,20.32,6.94,44.23,17.39,61.78c10.45,17.55,26.65,31.61,45.5,39.49
							c2.13,0.89,4.77,1.64,6.56,0.19c1.46-1.19,1.65-3.32,1.66-5.21c0.14-21.39-6.82-42.76-19.52-59.96
							C1260.04,881.44,1241.65,868.5,1221.17,862.36"/>
					</g>
				</g>
			</g>
		</g>
		<g>
			<g>
				<g>
					<g>
						<g>
							<path class="st5" d="M1309.7,1006.12c-0.04,0.01-0.23-0.38-0.58-1.13c-0.38-0.88-0.86-1.98-1.45-3.33
								c-1.22-2.9-3.05-7.08-5.37-12.21c-4.64-10.26-11.52-24.23-20.18-39.06c-8.68-14.83-17.48-27.68-24.14-36.76
								c-3.33-4.54-6.07-8.18-8-10.67c-0.89-1.17-1.61-2.13-2.19-2.9c-0.49-0.67-0.73-1.03-0.7-1.06c0.03-0.02,0.33,0.29,0.88,0.91
								c0.62,0.73,1.4,1.64,2.36,2.76c2.04,2.41,4.89,5.98,8.3,10.47c6.84,8.97,15.77,21.79,24.48,36.66
								c8.68,14.88,15.47,28.95,19.93,39.31c2.23,5.18,3.95,9.41,5.04,12.37c0.51,1.38,0.92,2.51,1.25,3.41
								C1309.61,1005.69,1309.73,1006.11,1309.7,1006.12z"/>
						</g>
					</g>
				</g>
			</g>
		</g>
		<g>
			<g>
				<g>
					<g>
						<g>
							<path class="st5" d="M1296.61,812.39c0.04,0,0.12,0.67,0.22,1.95c0.1,1.38,0.24,3.25,0.41,5.6
								c0.32,4.97,0.77,11.98,1.32,20.59c1.1,17.39,2.64,41.41,4.5,67.93c1.87,26.53,3.71,50.53,5.05,67.9
								c0.66,8.61,1.19,15.61,1.57,20.58c0.16,2.35,0.29,4.22,0.38,5.6c0.08,1.28,0.1,1.96,0.06,1.96c-0.04,0-0.14-0.66-0.29-1.94
								c-0.15-1.38-0.35-3.24-0.6-5.58c-0.47-4.96-1.13-11.95-1.94-20.55c-1.56-17.36-3.52-41.35-5.39-67.88
								c-1.86-26.52-3.28-50.56-4.17-67.96c-0.4-8.62-0.73-15.64-0.96-20.62c-0.08-2.36-0.14-4.23-0.19-5.61
								C1296.57,813.06,1296.57,812.39,1296.61,812.39z"/>
						</g>
					</g>
				</g>
			</g>
		</g>
	</g>
	<g>
		<g>
			<g>
				<g>
					<path class="st5" d="M1277.92,977.14h50.9v37.37c0,13.49-10.94,24.43-24.43,24.43l0,0c-12.99,0-23.7-10.16-24.4-23.13
						L1277.92,977.14z"/>
				</g>
			</g>
		</g>
	</g>
</g>
<g>
	<g>
		<g>
			<g>
				<g>
					<polyline class="st8" points="1020.12,484.49 1141.51,551.7 1136.94,560.27 1016.64,491.78 1020.12,484.49 					"/>
				</g>
			</g>
		</g>
		<g>
			<g>
				<g>
					<polygon class="st8" points="1014.15,478.13 1019.73,469.59 1022.98,471.59 1017.98,480.21 					"/>
				</g>
			</g>
		</g>
		<g>
			<g>
				<g>
					<polygon class="st8" points="1127.72,541.07 1133.96,544.67 1113.62,674.36 1104.01,674.48 					"/>
				</g>
			</g>
		</g>
		<g>
			<g>
				<g>
					<path class="st8" d="M1076.03,687.87c0,0,14.8-14.98,34.62-13.87c19.83,1.1,29.99,13.8,29.99,13.8L1076.03,687.87z"/>
				</g>
			</g>
		</g>
	</g>
	<g>
		<g>
			<path class="st8" d="M1014.26,536.93l-48.06-27.75l13.87-24.03c7.66-13.27,24.63-17.82,37.9-10.16l0,0
				c13.27,7.66,17.82,24.63,10.16,37.9L1014.26,536.93z"/>
		</g>
	</g>
</g>
</svg>
